<svg width="35" height="27" viewBox="0 0 35 27" fill="none" xmlns="http://www.w3.org/2000/svg">
<g id="Capa_1" clip-path="url(#clip0_23_4519)">
<path id="Vector" d="M31.465 20.9862L30.9962 19.3483C30.5679 17.8463 30.7218 15.5772 31.3624 13.9536C31.7859 12.8799 31.9148 11.6965 31.7358 10.5309C31.329 7.87537 29.2878 5.7125 26.6561 5.14941C24.8523 4.7605 23.0175 5.13868 21.5144 6.19208H13.4844C11.9813 5.13987 10.1465 4.7617 8.34268 5.14941C5.71097 5.7125 3.66978 7.87537 3.26298 10.5309C3.08522 11.6965 3.21287 12.8799 3.63638 13.9536C4.27701 15.5772 4.4309 17.8451 4.00262 19.3471L3.53378 20.9862C3.29996 21.8106 3.18185 22.6612 3.18424 23.5165C3.18782 24.4888 3.99069 25.2798 4.97371 25.2798H7.32507C8.29854 25.2798 9.19805 24.7513 9.68359 23.8768L12.5658 18.1219H22.433L25.3283 23.8983C25.8019 24.7513 26.7014 25.2798 27.6749 25.2798H30.0263C31.0093 25.2798 31.8122 24.4888 31.8157 23.5153C31.8181 22.6612 31.7 21.8106 31.465 20.9862ZM13.3246 13.35H11.5351V15.1394C11.5351 15.4687 11.2679 15.7359 10.9386 15.7359H8.55265C8.22338 15.7359 7.95616 15.4687 7.95616 15.1394V13.35H6.16669C5.83743 13.35 5.5702 13.0827 5.5702 12.7535V10.3675C5.5702 10.0382 5.83743 9.77102 6.16669 9.77102H7.95616V7.98155C7.95616 7.65229 8.22338 7.38506 8.55265 7.38506H10.9386C11.2679 7.38506 11.5351 7.65229 11.5351 7.98155V9.77102H13.3246C13.6538 9.77102 13.9211 10.0382 13.9211 10.3675V12.7535C13.9211 13.0827 13.6538 13.35 13.3246 13.35ZM15.7105 15.7359H14.5175C14.1883 15.7359 13.9211 15.4687 13.9211 15.1394C13.9211 14.8102 14.1883 14.5429 14.5175 14.5429H15.7105C16.0398 14.5429 16.307 14.8102 16.307 15.1394C16.307 15.4687 16.0398 15.7359 15.7105 15.7359ZM20.4824 15.7359H19.2895C18.9602 15.7359 18.693 15.4687 18.693 15.1394C18.693 14.8102 18.9602 14.5429 19.2895 14.5429H20.4824C20.8117 14.5429 21.0789 14.8102 21.0789 15.1394C21.0789 15.4687 20.8117 15.7359 20.4824 15.7359ZM27.6403 13.35C27.3564 13.35 27.0915 13.2772 26.8541 13.1603C26.9711 13.3977 27.0438 13.6625 27.0438 13.9464C27.0438 14.933 26.241 15.7359 25.2544 15.7359C24.2678 15.7359 23.4649 14.933 23.4649 13.9464C23.4649 13.6625 23.5377 13.3977 23.6546 13.1603C23.4172 13.2772 23.1523 13.35 22.8684 13.35C21.8818 13.35 21.0789 12.5471 21.0789 11.5605C21.0789 10.5739 21.8818 9.77102 22.8684 9.77102C23.1523 9.77102 23.4172 9.84379 23.6546 9.9607C23.5377 9.7233 23.4649 9.45846 23.4649 9.17453C23.4649 8.18793 24.2678 7.38506 25.2544 7.38506C26.241 7.38506 27.0438 8.18793 27.0438 9.17453C27.0438 9.45846 26.9711 9.7233 26.8541 9.9607C27.0915 9.84379 27.3564 9.77102 27.6403 9.77102C28.6269 9.77102 29.4298 10.5739 29.4298 11.5605C29.4298 12.5471 28.6269 13.35 27.6403 13.35Z" fill="black" fill-opacity="0.6"/>
<path id="Vector_2" d="M33.9843 16.9384C33.7019 15.7309 33.37 14.6579 33.1699 13.9827C33.0213 13.4809 32.8308 12.9865 32.6674 12.4932C32.504 12.0004 32.3682 11.5103 32.3222 11.0223L32.3171 10.969C32.5341 10.3119 32.6536 9.60795 32.6536 8.87411C32.6536 6.80912 31.7192 4.97292 30.2686 3.79857C29.8866 2.42528 28.6739 1.42105 27.2355 1.42105H25.7798C24.3419 1.42105 23.1287 2.42528 22.7463 3.79803C22.4777 4.01562 22.2265 4.25508 21.9962 4.51481H13.0033C12.7271 4.20282 12.4212 3.92069 12.0908 3.6711C11.6711 2.36342 10.4896 1.42105 9.09612 1.42105H7.64037C6.15654 1.42105 4.91269 2.48928 4.57263 3.92976C3.21287 5.10732 2.34637 6.88485 2.34586 8.87465C2.34586 9.60849 2.46534 10.3125 2.68235 10.9695L2.67724 11.0228C2.63129 11.5108 2.49546 12.0009 2.33207 12.4937C2.16918 12.9865 1.97822 13.4814 1.82963 13.9833C1.62947 14.6584 1.29757 15.7315 1.01521 16.9389C0.733859 18.1468 0.5 19.4897 0.5 20.7201C0.500511 21.6833 0.64195 22.5814 1.03665 23.2923C1.23375 23.6469 1.49671 23.953 1.83269 24.1861C2.16867 24.4192 2.57512 24.5775 3.0556 24.6474C3.22615 24.6725 3.39363 24.6842 3.55855 24.6842C4.34489 24.6842 5.05975 24.4096 5.70312 23.9744C6.66919 23.3205 7.48668 22.3099 8.21328 21.2705C8.93834 20.2321 9.57201 19.1607 10.1444 18.3906C10.1516 18.381 10.1597 18.3703 10.1689 18.358C10.6688 18.6386 11.2402 18.798 11.8478 18.798C13.5849 18.798 15.0299 17.4951 15.3383 15.7741H19.6627C19.9711 17.4946 21.4161 18.7975 23.1532 18.798C23.7608 18.798 24.3322 18.6386 24.8321 18.358C24.8408 18.3698 24.85 18.3815 24.8566 18.3906C25.2375 18.9036 25.6475 19.5516 26.0923 20.2337C26.7602 21.2571 27.5067 22.3584 28.3793 23.2139C28.8159 23.641 29.2846 24.008 29.7942 24.2688C30.3033 24.5301 30.8537 24.6842 31.4425 24.6842C31.6074 24.6842 31.7749 24.6725 31.9454 24.6474C32.4254 24.577 32.8323 24.4192 33.1678 24.1861C33.6723 23.8368 34.0088 23.3232 34.2141 22.7259C34.4198 22.128 34.5005 21.4427 34.5005 20.7201C34.5005 19.4897 34.2666 18.1468 33.9848 16.9389L33.9843 16.9384Z" fill="#3C3C3B"/>
<g id="Group">
<path id="Vector_3" d="M11.4832 3.26578C11.3632 3.05139 11.2182 2.8546 11.0508 2.67967C10.5498 2.15702 9.86001 1.83437 9.09614 1.83437H7.64038C6.87651 1.83437 6.18668 2.15755 5.68577 2.67967C5.46008 2.91539 5.27371 3.19218 5.13635 3.49777C6.10141 2.83913 7.25385 2.45461 8.4931 2.45461C9.57866 2.45461 10.5978 2.74953 11.4832 3.26578Z" fill="#C5BEC0"/>
<path id="Vector_4" d="M29.6814 3.37618C29.5512 3.11859 29.3852 2.88393 29.1902 2.67913C28.6893 2.15649 27.9994 1.83383 27.2356 1.83383H25.7798C25.0159 1.83383 24.3261 2.15702 23.8252 2.67913C23.6296 2.88339 23.4642 3.11805 23.334 3.37511C24.2602 2.7906 25.3463 2.45408 26.5074 2.45408C27.6686 2.45408 28.7556 2.7906 29.6819 3.37618H29.6814Z" fill="#C5BEC0"/>
<path id="Vector_5" d="M8.30062 15.2893C5.95641 15.2136 3.94307 13.7689 2.97036 11.6937C2.90092 12.0116 2.80748 12.3225 2.70638 12.6281C2.5389 13.1337 2.34997 13.6249 2.20802 14.1043C2.00684 14.7838 1.67852 15.8456 1.40024 17.0359C1.12195 18.2258 0.895242 19.5436 0.895753 20.7195C0.895753 21.4102 0.973876 22.0507 1.15872 22.5856C1.34407 23.1216 1.63001 23.5488 2.05177 23.8421C2.33414 24.0378 2.68034 24.1754 3.11078 24.2384C3.26345 24.2608 3.41255 24.2714 3.55858 24.2714C4.08145 24.2714 4.56908 24.136 5.03323 23.8981C5.49686 23.6608 5.93599 23.32 6.35162 22.9125C7.18341 22.0987 7.91868 21.0198 8.58248 20.0012C9.02467 19.3228 9.43571 18.6727 9.8299 18.1404C8.95267 17.5069 8.36138 16.4717 8.30062 15.2888V15.2893ZM2.66604 15.2824C2.59404 15.5171 2.49396 15.8531 2.38214 16.2578C2.32699 16.4605 2.26878 16.6802 2.21006 16.9128C2.15032 17.1453 2.0962 17.3922 2.03748 17.6471C2.01093 17.7751 1.98437 17.9052 1.9568 18.037C1.93382 18.1692 1.90574 18.302 1.88276 18.4375C1.85927 18.5724 1.83476 18.7084 1.81689 18.8455C1.79545 18.9825 1.7786 19.1201 1.76379 19.2583C1.72805 19.534 1.70762 19.8102 1.69384 20.0822C1.69179 20.2182 1.68669 20.3537 1.68567 20.4865C1.69026 20.6193 1.68516 20.7521 1.69639 20.8801C1.70456 21.0091 1.71222 21.1361 1.72856 21.2587C1.7352 21.3206 1.74234 21.3814 1.74898 21.4417C1.75919 21.5014 1.76941 21.5601 1.77962 21.6182C1.79034 21.6763 1.79902 21.7339 1.81128 21.7899C1.82506 21.8454 1.83885 21.8998 1.85213 21.9536C1.87459 22.063 1.90931 22.1638 1.94199 22.2608C1.95884 22.3094 1.97161 22.3584 1.99101 22.4032C2.01041 22.4486 2.02931 22.4923 2.04769 22.5349C2.06556 22.5787 2.08343 22.6208 2.10079 22.6619C2.12173 22.7008 2.14215 22.7387 2.16156 22.7749C2.20291 22.8469 2.23457 22.92 2.27644 22.9787C2.31678 23.0389 2.35354 23.0939 2.38725 23.144C2.4189 23.1963 2.45567 23.2352 2.48477 23.2715C2.5149 23.3077 2.53992 23.3387 2.56034 23.3632C2.60221 23.4133 2.62417 23.4405 2.62417 23.4405C2.62417 23.4405 2.59813 23.4176 2.54962 23.3755C2.52511 23.3541 2.49498 23.328 2.45924 23.2971C2.4235 23.2661 2.38112 23.2315 2.34231 23.184C2.30146 23.1381 2.25653 23.0875 2.20751 23.032C2.15543 22.9787 2.11662 22.9072 2.06505 22.8379C2.04054 22.8021 2.01552 22.7653 1.98897 22.7269C1.9665 22.6869 1.94352 22.6459 1.92004 22.6027C1.89655 22.56 1.87255 22.5157 1.84804 22.471C1.82353 22.4256 1.80617 22.376 1.7837 22.327C1.74081 22.2283 1.69588 22.1254 1.66218 22.0139C1.64431 21.9584 1.62593 21.9024 1.60754 21.8448C1.59069 21.7872 1.57844 21.7275 1.56312 21.6678C1.54882 21.6075 1.53402 21.5462 1.51921 21.4843C1.50848 21.4219 1.49725 21.359 1.48602 21.2945C1.45947 21.1665 1.45028 21.0347 1.43547 20.8998C1.41045 20.6315 1.40024 20.3532 1.40687 20.0705C1.4176 19.7889 1.43496 19.5025 1.46866 19.2193C1.48602 19.0775 1.50542 18.9361 1.52891 18.7964C1.54933 18.6556 1.5764 18.5175 1.60193 18.3794C1.65299 18.1042 1.71988 17.8375 1.78473 17.5799C1.8511 17.3229 1.92412 17.077 1.99867 16.8456C2.07016 16.6136 2.14828 16.3981 2.2213 16.1997C2.51439 15.4061 2.78144 14.9118 2.78144 14.9118C2.78144 14.9118 2.73752 15.0456 2.66604 15.2808V15.2824Z" fill="#DBD5D7"/>
<path id="Vector_6" d="M32.7925 14.1043C32.6506 13.6249 32.4617 13.1337 32.2942 12.6281C32.1926 12.3225 32.0996 12.0111 32.0302 11.6937C31.0575 13.7689 29.0441 15.2136 26.6999 15.2893C26.6392 16.4722 26.0484 17.5074 25.1707 18.141C25.7619 18.9393 26.3931 20.0065 27.1069 21.0283C27.8202 22.0512 28.6168 23.0245 29.5124 23.6282C30.1098 24.0314 30.746 24.2714 31.4425 24.272C31.589 24.272 31.7381 24.2613 31.8908 24.2389C32.3212 24.176 32.6674 24.0384 32.9498 23.8426C33.2317 23.6469 33.4517 23.392 33.6228 23.0848C33.9654 22.472 34.1063 21.6416 34.1058 20.7201C34.1058 19.5441 33.8796 18.2263 33.6013 17.0365C33.3231 15.8461 32.9947 14.7843 32.7936 14.1049L32.7925 14.1043ZM33.1837 20.9009C33.1689 21.0353 33.1597 21.1675 33.1331 21.2955C33.1219 21.3595 33.1106 21.423 33.0999 21.4854C33.0851 21.5472 33.0708 21.608 33.0565 21.6688C33.0412 21.7286 33.0284 21.7883 33.0121 21.8459C32.9937 21.903 32.9753 21.9595 32.9575 22.015C32.9238 22.1264 32.8788 22.2294 32.8359 22.328C32.814 22.3771 32.7961 22.4267 32.7716 22.472C32.7471 22.5173 32.7231 22.5611 32.6996 22.6037C32.6761 22.6464 32.6526 22.688 32.6307 22.728C32.6046 22.7664 32.5791 22.8032 32.5551 22.8389C32.5035 22.9083 32.4647 22.9797 32.4126 23.0331C32.3636 23.0885 32.3187 23.1392 32.2778 23.1851C32.2395 23.2325 32.1967 23.2672 32.1609 23.2981C32.1252 23.3291 32.095 23.3547 32.0705 23.3765C32.022 23.4186 31.996 23.4416 31.996 23.4416C31.996 23.4416 32.0179 23.4144 32.0598 23.3643C32.0802 23.3392 32.1058 23.3083 32.1359 23.2725C32.165 23.2357 32.2018 23.1973 32.2334 23.1451C32.2666 23.0955 32.3039 23.04 32.3442 22.9797C32.3861 22.9211 32.4177 22.848 32.4591 22.776C32.4785 22.7392 32.4989 22.7019 32.5199 22.6629C32.5372 22.6219 32.5546 22.5797 32.573 22.536C32.5914 22.4934 32.6102 22.4491 32.6296 22.4043C32.6491 22.3595 32.6618 22.3104 32.6787 22.2619C32.7113 22.1643 32.7456 22.0635 32.7685 21.9547C32.7818 21.9008 32.7956 21.8464 32.8094 21.791C32.8216 21.735 32.8303 21.6774 32.841 21.6192C32.8513 21.5611 32.8615 21.5025 32.8717 21.4427C32.8783 21.3825 32.885 21.3211 32.8921 21.2598C32.9084 21.1371 32.9161 21.0102 32.9243 20.8811C32.936 20.7531 32.9309 20.6204 32.935 20.4876C32.934 20.3548 32.9289 20.2193 32.9268 20.0833C32.913 19.8113 32.8926 19.5351 32.8569 19.2593C32.8421 19.1217 32.8252 18.9836 32.8038 18.8465C32.7854 18.7095 32.7609 18.5735 32.7374 18.4386C32.7149 18.3036 32.6863 18.1703 32.6633 18.038C32.6363 17.9063 32.6092 17.7762 32.5827 17.6482C32.5245 17.3933 32.4698 17.1463 32.4101 16.9138C32.3514 16.6808 32.2932 16.4616 32.238 16.2589C32.1262 15.8541 32.0261 15.5187 31.9541 15.2835C31.8821 15.0483 31.8387 14.9144 31.8387 14.9144C31.8387 14.9144 32.1058 15.4088 32.3989 16.2024C32.4719 16.4008 32.55 16.6162 32.6215 16.8482C32.6955 17.0797 32.7685 17.3255 32.8349 17.5826C32.8998 17.8402 32.9667 18.1068 33.0177 18.382C33.0432 18.5196 33.0698 18.6583 33.0902 18.7991C33.1137 18.9388 33.1331 19.0801 33.15 19.222C33.1837 19.5057 33.201 19.7916 33.2117 20.0732C33.2184 20.3558 33.2087 20.6342 33.1832 20.9025L33.1837 20.9009Z" fill="#DBD5D7"/>
<path id="Vector_7" d="M33.9843 16.9384C33.7019 15.7309 33.37 14.6579 33.1699 13.9827C33.0213 13.4809 32.8308 12.9865 32.6674 12.4932C32.504 12.0004 32.3682 11.5103 32.3222 11.0223L32.3171 10.969C32.5341 10.3119 32.6536 9.60795 32.6536 8.87411C32.6536 6.80912 31.7192 4.97292 30.2686 3.79857C29.8866 2.42528 28.6739 1.42105 27.2355 1.42105H25.7798C24.3419 1.42105 23.1287 2.42528 22.7463 3.79803C22.4777 4.01562 22.2265 4.25508 21.9962 4.51481H13.0033C12.7271 4.20282 12.4212 3.92069 12.0908 3.67057C11.6711 2.36342 10.4896 1.42105 9.09612 1.42105H7.64037C6.15654 1.42105 4.91269 2.48928 4.57263 3.92976C3.21287 5.10732 2.34637 6.88485 2.34586 8.87465C2.34586 9.60849 2.46534 10.3125 2.68235 10.969L2.67724 11.0223C2.63129 11.5103 2.49546 12.0004 2.33207 12.4932C2.16918 12.986 1.97822 13.4809 1.82963 13.9827C1.62947 14.6579 1.29757 15.7309 1.01521 16.9384C0.733859 18.1468 0.5 19.4897 0.5 20.7201C0.500511 21.6833 0.64195 22.5814 1.03665 23.2923C1.23375 23.6469 1.49671 23.953 1.83269 24.1861C2.16867 24.4192 2.57512 24.5775 3.0556 24.6474C3.22615 24.6725 3.39363 24.6842 3.55855 24.6842C4.34489 24.6842 5.05975 24.4096 5.70312 23.9744C6.66919 23.3205 7.48668 22.3099 8.21328 21.2705C8.93834 20.2321 9.57201 19.1607 10.1444 18.3906C10.1516 18.381 10.1597 18.3703 10.1689 18.358C10.6688 18.6386 11.2402 18.798 11.8478 18.798C13.5849 18.798 15.0299 17.4951 15.3383 15.7741H19.6627C19.9711 17.4946 21.4161 18.7975 23.1532 18.798C23.7608 18.798 24.3322 18.6386 24.8321 18.358C24.8408 18.3698 24.85 18.3815 24.8566 18.3906C25.2375 18.9036 25.6475 19.5516 26.0923 20.2337C26.7602 21.2571 27.5067 22.3584 28.3793 23.2139C28.8159 23.641 29.2846 24.008 29.7942 24.2688C30.3033 24.5301 30.8537 24.6842 31.4425 24.6842C31.6074 24.6842 31.7749 24.6725 31.9454 24.6474C32.4254 24.577 32.8323 24.4192 33.1678 24.1861C33.6723 23.8368 34.0088 23.3232 34.2141 22.7259C34.4198 22.128 34.5005 21.4427 34.5005 20.7201C34.5005 19.4897 34.2666 18.1468 33.9848 16.9389L33.9843 16.9384ZM23.8247 2.67914C24.3256 2.15649 25.0154 1.83384 25.7793 1.83384H27.235C27.9989 1.83384 28.6887 2.15702 29.1896 2.67914C29.3852 2.8834 29.5512 3.11859 29.6809 3.37618C28.7541 2.79113 27.668 2.45408 26.5064 2.45408C25.3448 2.45408 24.2597 2.7906 23.333 3.37511C23.4632 3.11806 23.6286 2.8834 23.8242 2.67914H23.8247ZM5.68576 2.67914C6.18666 2.15649 6.8765 1.83384 7.64037 1.83384H9.09612C9.85999 1.83384 10.5498 2.15702 11.0507 2.67914C11.2182 2.85407 11.3632 3.05086 11.4832 3.26525C10.5978 2.749 9.57865 2.45408 8.49309 2.45408C7.25435 2.45408 6.1019 2.8386 5.13634 3.49724C5.27369 3.19219 5.45956 2.9154 5.68576 2.67914ZM8.58194 20.0017C7.91814 21.0198 7.18287 22.0987 6.35108 22.9131C5.93544 23.3205 5.49632 23.6613 5.03269 23.8986C4.56854 24.1365 4.08091 24.272 3.55804 24.272C3.4115 24.272 3.2624 24.2613 3.11024 24.2389C2.67979 24.176 2.3336 24.0384 2.05123 23.8426C1.62896 23.5493 1.34353 23.1221 1.15818 22.5862C0.973336 22.0512 0.895212 21.4107 0.895212 20.7201C0.895212 19.5441 1.12141 18.2263 1.3997 17.0365C1.67798 15.8461 2.0063 14.7843 2.20748 14.1049C2.34943 13.6254 2.53836 13.1342 2.70584 12.6286C2.80745 12.3231 2.90038 12.0116 2.96982 11.6943C3.94253 13.7694 5.95587 15.2142 8.30008 15.2899C8.36084 16.4728 8.95213 17.5079 9.82936 18.1415C9.43517 18.6738 9.02413 19.3239 8.58194 20.0022V20.0017ZM14.0797 17.4194C13.5078 18.0167 12.7199 18.3847 11.8473 18.3847C10.9747 18.3847 10.1868 18.0162 9.6149 17.4194C9.04302 16.8221 8.69019 15.9992 8.69019 15.0878C8.69019 14.1769 9.04353 13.3534 9.6149 12.7561C10.1868 12.1593 10.9752 11.7903 11.8473 11.7903C12.7194 11.7903 13.5078 12.1588 14.0797 12.7561C14.651 13.3534 15.0044 14.1769 15.0044 15.0878C15.0044 15.9992 14.651 16.8221 14.0797 17.4194ZM19.6111 15.3619H15.3889C15.395 15.2712 15.3996 15.18 15.3996 15.0883C15.3996 13.1065 13.9122 11.4884 12.0398 11.3839C11.976 11.3802 11.9116 11.378 11.8473 11.378C10.126 11.378 8.69121 12.6564 8.36493 14.3539C8.36391 14.3587 8.3634 14.364 8.36237 14.3694C8.33123 14.5347 8.31029 14.7043 8.3011 14.8771C6.78867 14.8254 5.42534 14.1662 4.42608 13.123C3.38495 12.0351 2.74158 10.5349 2.74158 8.87518C2.74158 7.21551 3.38495 5.7153 4.42608 4.62734C5.46773 3.54044 6.90407 2.86847 8.49309 2.86847C10.0821 2.86847 11.5185 3.54044 12.5601 4.62734C13.6012 5.7153 14.2446 7.21551 14.2446 8.87518H14.6398C14.6398 7.38617 14.1532 6.01715 13.3393 4.92812H21.6612C20.8473 6.01662 20.3607 7.38617 20.3607 8.87518H20.7559C20.7559 7.21551 21.3993 5.7153 22.4404 4.62734C23.4821 3.54044 24.9184 2.86847 26.5074 2.86847C28.0964 2.86847 29.5328 3.54044 30.5744 4.62734C31.6156 5.7153 32.2589 7.21551 32.2589 8.87518C32.2589 10.5349 31.6156 12.0351 30.5744 13.123C29.5752 14.1662 28.2118 14.8254 26.6994 14.8771C26.5942 12.9262 25.0471 11.3786 23.1532 11.3786C23.0889 11.3786 23.0245 11.3807 22.9607 11.3844C21.0883 11.489 19.6014 13.107 19.6009 15.0888C19.6009 15.1811 19.605 15.2723 19.6116 15.3624L19.6111 15.3619ZM23.1527 18.3852C22.2806 18.3852 21.4922 18.0167 20.9203 17.4199C20.3484 16.8226 19.9956 15.9997 19.9956 15.0883C19.9956 14.1774 20.3489 13.354 20.9203 12.7566C21.4922 12.1599 22.2801 11.7908 23.1527 11.7908C24.0253 11.7908 24.8132 12.1593 25.3851 12.7566C25.9565 13.354 26.3098 14.1774 26.3098 15.0883C26.3098 15.9997 25.9565 16.8226 25.3851 17.4199C24.8132 18.0173 24.0248 18.3852 23.1527 18.3852ZM33.6217 23.0848C33.4507 23.392 33.2306 23.6464 32.9488 23.8426C32.6664 24.0384 32.3202 24.176 31.8898 24.2389C31.7371 24.2613 31.588 24.272 31.4414 24.272C30.745 24.272 30.1087 24.0314 29.5113 23.6282C28.6157 23.0245 27.8197 22.0512 27.1059 21.0283C26.392 20.0065 25.7614 18.9394 25.1696 18.141C26.0468 17.5074 26.6381 16.4722 26.6989 15.2893C29.0431 15.2136 31.0559 13.7689 32.0292 11.6937C32.0986 12.0116 32.192 12.3225 32.2931 12.6281C32.4606 13.1337 32.6495 13.6249 32.7915 14.1043C32.9927 14.7838 33.321 15.8456 33.5993 17.036C33.8776 18.2258 34.1038 19.5436 34.1038 20.7196C34.1043 21.6411 33.9633 22.4715 33.6207 23.0843L33.6217 23.0848Z" fill="#3C3C3B"/>
<path id="Vector_8" d="M22.9602 11.3834C23.0241 11.3796 23.0884 11.3775 23.1527 11.3775C25.0466 11.3775 26.5942 12.9257 26.6989 14.876C28.2113 14.8243 29.5747 14.1651 30.5739 13.122C31.6151 12.034 32.2584 10.5338 32.2584 8.87412C32.2584 7.21444 31.6151 5.71423 30.5739 4.62627C29.5323 3.53938 28.096 2.8674 26.5069 2.8674C24.9179 2.8674 23.4816 3.53938 22.4399 4.62627C21.3988 5.71423 20.7554 7.21444 20.7554 8.87412H20.3602C20.3602 7.3851 20.8468 6.01609 21.6607 4.92706H13.3388C14.1527 6.01555 14.6393 7.3851 14.6393 8.87412H14.2441C14.2441 7.21444 13.6007 5.71423 12.5596 4.62627C11.518 3.53938 10.0816 2.8674 8.4926 2.8674C6.90358 2.8674 5.46724 3.53938 4.42559 4.62627C3.38446 5.71423 2.74109 7.21444 2.74109 8.87412C2.74109 10.5338 3.38446 12.034 4.42559 13.122C5.42486 14.1651 6.78819 14.8243 8.30061 14.876C8.3098 14.7032 8.33074 14.5342 8.36189 14.3683C8.34504 14.3683 8.32716 14.3683 8.30674 14.3683C8.24649 14.3689 8.17143 14.3694 8.0836 14.3699C8.03969 14.3699 7.9922 14.3721 7.94216 14.3699C7.89161 14.3646 7.838 14.3587 7.78183 14.3523C7.66848 14.339 7.54185 14.3278 7.40449 14.3091C7.26969 14.2793 7.12366 14.2467 6.96792 14.2115C6.88878 14.1977 6.8127 14.1635 6.731 14.139C6.64981 14.1118 6.56658 14.0835 6.48131 14.0547C6.39399 14.0302 6.31281 13.9838 6.22549 13.9454C6.1392 13.9054 6.05086 13.8643 5.95998 13.8222C5.87113 13.7769 5.78535 13.7209 5.69497 13.6691C5.65004 13.6425 5.60459 13.6158 5.55915 13.5886C5.51319 13.5619 5.46673 13.5347 5.42435 13.5006C5.25125 13.37 5.06283 13.2457 4.89637 13.082C4.54201 12.7812 4.22492 12.3945 3.94102 11.9663C3.87464 11.8553 3.80775 11.7439 3.74035 11.6314C3.67448 11.5183 3.62393 11.3946 3.56419 11.2756C3.5356 11.2154 3.507 11.1546 3.4779 11.0938L3.40795 10.9039C3.36352 10.7759 3.31246 10.649 3.27519 10.5173C3.12149 9.98981 3.05001 9.43196 3.03571 8.87305L3.05665 8.45867C3.06226 8.3904 3.0592 8.32587 3.07145 8.25494L3.1026 8.04428L3.13426 7.83469L3.15009 7.73016L3.1746 7.62936C3.2083 7.4955 3.24149 7.36164 3.27519 7.22831C3.31195 7.09658 3.36403 6.97019 3.40744 6.84166L3.47739 6.6518C3.50649 6.591 3.53509 6.53074 3.56368 6.47047C3.62291 6.35047 3.67346 6.22728 3.73984 6.11422C3.80724 6.00222 3.87413 5.89022 3.94051 5.7793C4.22492 5.35104 4.5415 4.96439 4.89586 4.66307C5.06181 4.49988 5.25125 4.37561 5.42384 4.24495C5.46673 4.21135 5.51268 4.18415 5.55915 4.15749C5.60459 4.12976 5.65004 4.10309 5.69497 4.07642C5.78535 4.02469 5.87113 3.96869 5.95998 3.92336C6.05035 3.88123 6.13869 3.84017 6.22549 3.80017C6.31281 3.76177 6.39399 3.71537 6.48131 3.69084C6.56709 3.66204 6.65032 3.63377 6.731 3.60657C6.8127 3.58204 6.88878 3.54738 6.96792 3.53404C7.12366 3.49938 7.26969 3.46685 7.40449 3.43645C7.54083 3.41831 7.66746 3.40711 7.7803 3.39378C7.83698 3.38738 7.89059 3.38205 7.94063 3.37618C7.99118 3.37405 8.03867 3.37618 8.08309 3.37618C8.17143 3.37672 8.24649 3.37725 8.30725 3.37778C8.42827 3.37832 8.49311 3.37938 8.49311 3.37938C8.49311 3.37938 8.42878 3.38632 8.30827 3.40018C8.24802 3.40711 8.17398 3.41511 8.08718 3.42525C8.04378 3.43058 7.9968 3.43431 7.94727 3.44231C7.89825 3.45298 7.84617 3.46365 7.79102 3.47538C7.68124 3.49938 7.55921 3.52284 7.42798 3.55378C7.29931 3.59484 7.15991 3.63857 7.01081 3.6855C6.93524 3.70524 6.86376 3.7447 6.78716 3.7751C6.71108 3.80763 6.63296 3.84123 6.55279 3.8759C6.4711 3.9063 6.39502 3.95589 6.31383 3.99803C6.23315 4.04176 6.15094 4.08656 6.0672 4.13242C5.985 4.18095 5.90585 4.24068 5.82262 4.29508C5.78126 4.32335 5.7399 4.35161 5.69803 4.37988C5.65565 4.40815 5.61327 4.43641 5.57447 4.47161C5.41771 4.60707 5.24257 4.72973 5.09245 4.89346C5.01535 4.97239 4.93263 5.04652 4.85757 5.13185C4.78557 5.21878 4.71204 5.30731 4.63801 5.39638C4.56039 5.48224 4.4981 5.5825 4.42968 5.67957C4.39598 5.7281 4.36228 5.77663 4.32807 5.82569L4.27649 5.89929L4.23207 5.97769C3.97574 6.38887 3.79141 6.85872 3.64027 7.34404C3.61066 7.46777 3.58053 7.59203 3.55041 7.71683L3.52794 7.81069L3.51466 7.90455L3.48811 8.09281L3.46054 8.28107C3.44931 8.3424 3.45237 8.41387 3.44726 8.48L3.4299 8.87358C3.44011 9.3925 3.50139 9.91088 3.63976 10.4026C3.79039 10.8884 3.97523 11.3578 4.23105 11.7689C4.48993 12.1743 4.76821 12.5545 5.09194 12.8537C5.24206 13.0169 5.4172 13.1396 5.57395 13.2756C5.61276 13.3102 5.65514 13.339 5.69752 13.3673C5.73939 13.3956 5.78075 13.4238 5.82211 13.4521C5.90534 13.507 5.98397 13.5662 6.06618 13.6147C6.15043 13.6606 6.23264 13.7054 6.31332 13.7491C6.39451 13.7913 6.47059 13.8409 6.55228 13.8713C6.63245 13.9059 6.71057 13.9395 6.78665 13.9721C6.86325 14.0025 6.93524 14.0425 7.0103 14.0617C7.15889 14.1086 7.29829 14.1529 7.42696 14.1934C7.55768 14.2249 7.6792 14.2478 7.78847 14.2718C7.84362 14.283 7.8957 14.2942 7.94472 14.3049C7.99425 14.3129 8.04173 14.3166 8.08514 14.3219C8.17245 14.3321 8.247 14.3401 8.30725 14.347C8.32768 14.3491 8.34657 14.3513 8.36393 14.3534C8.69021 12.6558 10.125 11.3775 11.8463 11.3775C11.9106 11.3775 11.975 11.3796 12.0388 11.3834C13.9112 11.4879 15.3981 13.106 15.3986 15.0878C15.3986 15.18 15.3945 15.2712 15.3879 15.3613H19.6101C19.604 15.2707 19.5994 15.1795 19.5994 15.0878C19.5994 13.106 21.0868 11.4879 22.9592 11.3834H22.9602Z" fill="#C5BEC0"/>
<path id="Vector_9" d="M26.5069 12.1108C25.864 12.1108 25.3432 11.5663 25.3432 10.8954C25.3432 10.2245 25.864 9.67995 26.5069 9.67995C27.1497 9.67995 27.6706 10.2239 27.6706 10.8954C27.6706 11.5668 27.1497 12.1108 26.5069 12.1108Z" fill="#C5BEC0"/>
<path id="Vector_10" d="M29.6058 8.87411C29.6058 9.54556 29.085 10.0895 28.4421 10.0901C27.7993 10.0901 27.2784 9.54609 27.2784 8.87411C27.2784 8.20267 27.7993 7.65816 28.4421 7.65816C29.085 7.65816 29.6058 8.20214 29.6058 8.87411Z" fill="#C5BEC0"/>
<path id="Vector_11" d="M26.5069 5.63797C27.1497 5.63797 27.6706 6.18248 27.6706 6.85339C27.6706 7.5243 27.1497 8.06935 26.5069 8.06935C25.864 8.06935 25.3432 7.52537 25.3432 6.85339C25.3432 6.18142 25.864 5.63797 26.5069 5.63797Z" fill="#C5BEC0"/>
<path id="Vector_12" d="M24.5722 7.65869C25.215 7.65869 25.7359 8.20267 25.7364 8.87465C25.7364 9.54609 25.215 10.0901 24.5722 10.0906C23.9293 10.0906 23.4085 9.54662 23.4085 8.87465C23.4085 8.2032 23.9298 7.65869 24.5722 7.65869Z" fill="#C5BEC0"/>
<path id="Vector_13" d="M7.33655 6.83792C7.33655 6.17074 7.8538 5.62996 8.49257 5.62996C9.13134 5.62996 9.64859 6.17074 9.64859 6.83792V7.54829C9.64859 8.21547 7.33655 8.21547 7.33655 7.54829V6.83792Z" fill="#C5BEC0"/>
<path id="Vector_14" d="M6.54305 10.0821C5.90478 10.0821 5.38702 9.54182 5.38702 8.87464C5.38702 8.20747 5.90478 7.66722 6.54305 7.66722H7.22318C7.86144 7.66722 7.86144 10.0821 7.22318 10.0821H6.54305Z" fill="#C5BEC0"/>
<path id="Vector_15" d="M9.64914 10.9108C9.64914 11.578 9.13189 12.1188 8.49312 12.1188C7.85435 12.1188 7.3371 11.578 7.3371 10.9108V10.2005C7.3371 9.53329 9.64914 9.53329 9.64914 10.2005V10.9108Z" fill="#C5BEC0"/>
<path id="Vector_16" d="M10.4426 10.0821H9.76245C9.12419 10.0821 9.12419 7.66722 9.76245 7.66722H10.4426C11.0814 7.66722 11.5991 8.20747 11.5991 8.87464C11.5991 9.54182 11.0814 10.0821 10.4426 10.0821Z" fill="#C5BEC0"/>
<path id="Vector_17" d="M16.837 10.449H15.1857V11.3695H16.837V10.449Z" fill="#C5BEC0"/>
<path id="Vector_18" d="M19.8143 10.449H18.163V11.3695H19.8143V10.449Z" fill="#C5BEC0"/>
<path id="Vector_19" d="M8.08611 14.3219C8.0427 14.3166 7.99522 14.3129 7.94569 14.3049C7.89667 14.2942 7.84459 14.2835 7.78944 14.2718C7.67966 14.2478 7.55813 14.2249 7.42793 14.1934C7.29926 14.1529 7.15986 14.1086 7.01127 14.0617C6.9357 14.0425 6.86422 14.0025 6.78762 13.9721C6.71154 13.9395 6.63342 13.9059 6.55325 13.8713C6.47207 13.8409 6.39548 13.7907 6.31429 13.7491C6.23361 13.7054 6.1514 13.6606 6.06715 13.6147C5.98495 13.5662 5.9058 13.507 5.82308 13.4521C5.78172 13.4238 5.74036 13.3956 5.69849 13.3673C5.65611 13.339 5.61373 13.3102 5.57493 13.2756C5.41817 13.1396 5.24303 13.0174 5.09291 12.8537C4.76918 12.5545 4.4909 12.1743 4.23202 11.7689C3.9762 11.3583 3.79136 10.8884 3.64073 10.4026C3.50236 9.91141 3.44109 9.3925 3.43087 8.87358L3.44823 8.48C3.45283 8.41387 3.45028 8.3424 3.46151 8.28107L3.48908 8.09281L3.51563 7.90455L3.52891 7.81069L3.55138 7.71683C3.5815 7.59203 3.61163 7.46777 3.64124 7.34404C3.79239 6.85872 3.97672 6.38887 4.23304 5.97769L4.27746 5.89929L4.32904 5.8257C4.36325 5.77663 4.39695 5.72757 4.43065 5.67957C4.49907 5.58304 4.56136 5.48277 4.63898 5.39638C4.71302 5.30731 4.78654 5.21932 4.85854 5.13185C4.9336 5.04652 5.01632 4.97239 5.09342 4.89346C5.24354 4.72974 5.41868 4.60761 5.57544 4.47161C5.61424 4.43641 5.65662 4.40815 5.699 4.37988C5.74087 4.35162 5.78223 4.32282 5.82359 4.29508C5.90682 4.24069 5.98546 4.18095 6.06817 4.13242C6.15243 4.08656 6.23463 4.04176 6.3148 3.99803C6.39599 3.9559 6.47207 3.9063 6.55376 3.8759C6.63393 3.84123 6.71205 3.80764 6.78814 3.7751C6.86473 3.7447 6.93672 3.70471 7.01178 3.68551C7.16037 3.63857 7.29977 3.59431 7.42895 3.55378C7.56018 3.52285 7.68221 3.49938 7.79199 3.47538C7.84714 3.46365 7.89922 3.45298 7.94824 3.44232C7.99777 3.43485 8.04475 3.43112 8.08815 3.42525C8.17495 3.41512 8.24899 3.40712 8.30924 3.40018C8.42975 3.38632 8.49408 3.37938 8.49408 3.37938C8.49408 3.37938 8.42924 3.37885 8.30822 3.37778C8.24746 3.37778 8.1724 3.37672 8.08406 3.37618C8.03964 3.37618 7.99215 3.37458 7.9416 3.37618C7.89156 3.38205 7.83795 3.38738 7.78127 3.39378C7.66843 3.40712 7.54231 3.41832 7.40546 3.43645C7.27066 3.46685 7.12463 3.49938 6.96889 3.53404C6.88975 3.54791 6.81367 3.58204 6.73197 3.60658C6.65078 3.63377 6.56755 3.66204 6.48228 3.69084C6.39497 3.71537 6.31378 3.76177 6.22646 3.80017C6.13966 3.84017 6.05132 3.88123 5.96095 3.92336C5.8721 3.9687 5.78632 4.02416 5.69594 4.07643C5.65101 4.10309 5.60556 4.12976 5.56012 4.15749C5.51416 4.18415 5.4677 4.21135 5.42481 4.24495C5.25222 4.37615 5.06329 4.49988 4.89683 4.66307C4.54196 4.96439 4.22538 5.35051 3.94148 5.7793C3.8751 5.89023 3.80821 6.00169 3.74081 6.11422C3.67443 6.22728 3.62439 6.35101 3.56465 6.47047C3.53606 6.53074 3.50746 6.591 3.47836 6.6518L3.40841 6.84166C3.365 6.97019 3.31292 7.09658 3.27616 7.22831C3.24297 7.36164 3.20927 7.49497 3.17557 7.62936L3.15106 7.73016L3.13523 7.83469L3.10357 8.04428L3.07242 8.25494C3.06017 8.32587 3.06323 8.3904 3.05762 8.45867L3.03668 8.87305C3.05098 9.43196 3.12298 9.98981 3.27616 10.5173C3.31343 10.649 3.36449 10.7759 3.40892 10.9039L3.47887 11.0938C3.50798 11.1546 3.53657 11.2148 3.56516 11.2756C3.6249 11.3946 3.67546 11.5183 3.74132 11.6314C3.80872 11.7439 3.87561 11.8553 3.94199 11.9663C4.2264 12.3945 4.54298 12.7812 4.89735 13.082C5.0638 13.2457 5.25222 13.37 5.42532 13.5006C5.46821 13.5342 5.51416 13.5614 5.56012 13.5886C5.60607 13.6158 5.65101 13.6425 5.69594 13.6691C5.78632 13.7209 5.8721 13.7769 5.96095 13.8222C6.05132 13.8643 6.13966 13.9054 6.22646 13.9454C6.31378 13.9838 6.39497 14.0297 6.48228 14.0547C6.56755 14.0835 6.65078 14.1118 6.73197 14.139C6.81367 14.1641 6.88975 14.1982 6.96889 14.2115C7.12463 14.2462 7.27066 14.2793 7.40546 14.3091C7.54282 14.3283 7.66945 14.339 7.7828 14.3523C7.83948 14.3582 7.8931 14.3641 7.94314 14.3699C7.99369 14.3721 8.04066 14.3699 8.08457 14.3699C8.1724 14.3694 8.24695 14.3689 8.30771 14.3683C8.32762 14.3683 8.34601 14.3683 8.36286 14.3683C8.36388 14.3635 8.36439 14.3582 8.36541 14.3529C8.34805 14.3507 8.32967 14.3486 8.30873 14.3465C8.24848 14.3395 8.17393 14.3315 8.08662 14.3214L8.08611 14.3219Z" fill="white"/>
<path id="Vector_20" d="M26.3098 15.0878C26.3098 14.1769 25.9565 13.3534 25.3851 12.7561C24.8132 12.1593 24.0248 11.7903 23.1527 11.7903C22.2806 11.7903 21.4922 12.1588 20.9203 12.7561C20.3484 13.3534 19.9956 14.1769 19.9956 15.0878C19.9956 15.9992 20.3489 16.8221 20.9203 17.4194C21.4922 18.0167 22.2801 18.3847 23.1527 18.3847C24.0253 18.3847 24.8132 18.0162 25.3851 17.4194C25.9565 16.8221 26.3098 15.9992 26.3098 15.0878ZM23.1527 17.5154C21.8695 17.5154 20.8289 16.429 20.8289 15.0883C20.8289 13.7475 21.869 12.6617 23.1527 12.6612C24.4364 12.6612 25.4765 13.7481 25.477 15.0883C25.477 16.429 24.4364 17.5154 23.1527 17.5154Z" fill="#C5BEC0"/>
<path id="Vector_21" d="M11.8473 11.7903C10.9747 11.7903 10.1868 12.1588 9.6149 12.7561C9.04302 13.3534 8.69019 14.1769 8.69019 15.0878C8.69019 15.9992 9.04353 16.8221 9.6149 17.4194C10.1868 18.0167 10.9752 18.3847 11.8473 18.3847C12.7194 18.3847 13.5078 18.0162 14.0797 17.4194C14.6511 16.8221 15.0044 15.9992 15.0044 15.0878C15.0044 14.1769 14.6511 13.3534 14.0797 12.7561C13.5078 12.1593 12.7199 11.7903 11.8473 11.7903ZM11.8473 17.5154C10.5636 17.5154 9.5235 16.429 9.52299 15.0883C9.52299 13.7481 10.5636 12.6617 11.8473 12.6612C13.1305 12.6612 14.1711 13.7481 14.1711 15.0883C14.1711 16.4285 13.131 17.5154 11.8473 17.5154Z" fill="#C5BEC0"/>
<path id="Vector_22" d="M11.8473 13.0734C11.3137 13.0734 10.8327 13.2985 10.4834 13.6633C10.1342 14.0286 9.9187 14.5304 9.9187 15.0878C9.9187 15.6451 10.1342 16.1469 10.4834 16.5122C10.8332 16.8776 11.3142 17.1021 11.8473 17.1021C12.3804 17.1021 12.8613 16.877 13.2111 16.5122C13.5604 16.1474 13.7759 15.6451 13.7759 15.0878C13.7759 14.5304 13.5604 14.0286 13.2111 13.6633C12.8613 13.2985 12.3804 13.0734 11.8473 13.0734Z" fill="#4B4949"/>
<path id="Vector_23" d="M13.3689 14.3609C13.4052 14.4494 13.4445 14.532 13.4654 14.6168C13.4772 14.6584 13.4884 14.6995 13.4996 14.739C13.5063 14.779 13.5129 14.8184 13.519 14.8558C13.5344 14.9294 13.5364 14.9992 13.5384 15.06C13.5395 15.0904 13.5405 15.1187 13.5415 15.1454C13.5395 15.1715 13.5379 15.1955 13.5364 15.2174C13.5293 15.3043 13.5231 15.3528 13.5231 15.3528C13.5231 15.3528 13.5124 15.3038 13.4971 15.22C13.4935 15.1992 13.4894 15.1758 13.4848 15.1507C13.4782 15.1262 13.471 15.0995 13.4639 15.0707C13.4491 15.0142 13.4343 14.9507 13.4093 14.8835C13.398 14.8499 13.3863 14.8152 13.374 14.779C13.3592 14.7438 13.3439 14.708 13.3281 14.6712C13.3005 14.5955 13.253 14.5246 13.2168 14.4462C13.1698 14.3737 13.1254 14.2969 13.0697 14.2259C13.0197 14.1513 12.9553 14.0862 12.8956 14.0179C12.8302 13.9555 12.7679 13.8889 12.6959 13.8361C12.6285 13.7779 12.5545 13.7315 12.4851 13.6825C12.41 13.6446 12.3426 13.595 12.2701 13.5662C12.2349 13.5497 12.2001 13.5337 12.1669 13.5182C12.1322 13.5054 12.099 13.4932 12.0669 13.4809C12.0025 13.4548 11.9428 13.4393 11.8887 13.4244C11.8616 13.4164 11.8361 13.4094 11.8126 13.4025C11.7881 13.3977 11.7656 13.3934 11.7457 13.3897C11.6645 13.3737 11.618 13.3625 11.618 13.3625C11.618 13.3625 11.665 13.3561 11.7472 13.3492C11.7677 13.3476 11.7906 13.3454 11.8151 13.3433C11.8402 13.3444 11.8677 13.3454 11.8968 13.3465C11.9556 13.3492 12.0235 13.3513 12.0939 13.3668C12.1297 13.3732 12.1675 13.3801 12.2058 13.387C12.2435 13.3988 12.2823 13.4105 12.3222 13.4228C12.4039 13.4441 12.483 13.4852 12.5678 13.523C12.6464 13.5716 12.7342 13.6131 12.8098 13.6766C12.8905 13.7331 12.9609 13.8046 13.035 13.8723C13.0998 13.9497 13.1683 14.0233 13.2224 14.1075C13.2837 14.1859 13.323 14.2777 13.3694 14.3603L13.3689 14.3609Z" fill="#4B4949"/>
<path id="Vector_24" d="M11.8473 12.6606C10.5636 12.6606 9.52352 13.7475 9.52301 15.0878C9.52301 16.4285 10.5636 17.5149 11.8473 17.5149C13.1305 17.5149 14.1711 16.4285 14.1711 15.0878C14.1711 13.747 13.131 12.6612 11.8473 12.6606ZM13.2111 16.5122C12.8614 16.8776 12.3804 17.1021 11.8473 17.1021C11.3142 17.1021 10.8327 16.877 10.4835 16.5122C10.1342 16.1475 9.91873 15.6451 9.91873 15.0878C9.91873 14.5304 10.1342 14.0286 10.4835 13.6633C10.8332 13.2985 11.3142 13.0734 11.8473 13.0734C12.3804 13.0734 12.8614 13.2985 13.2111 13.6633C13.5604 14.0286 13.7759 14.5304 13.7759 15.0878C13.7759 15.6451 13.5604 16.1469 13.2111 16.5122Z" fill="#3C3C3B"/>
<path id="Vector_25" d="M24.5165 13.6633C24.1668 13.2985 23.6858 13.0734 23.1527 13.0734C22.6196 13.0734 22.1386 13.2985 21.7889 13.6633C21.4396 14.0286 21.2241 14.5304 21.2241 15.0878C21.2241 15.6451 21.4396 16.1469 21.7889 16.5122C22.1386 16.8776 22.6196 17.1021 23.1527 17.1021C23.6858 17.1021 24.1673 16.877 24.5165 16.5122C24.8658 16.1474 25.0813 15.6451 25.0813 15.0878C25.0813 14.5304 24.8658 14.0286 24.5165 13.6633Z" fill="#4B4949"/>
<path id="Vector_26" d="M24.7223 15.3533C24.7223 15.3533 24.7116 15.3043 24.6963 15.2205C24.6922 15.1997 24.6886 15.1763 24.684 15.1512C24.6774 15.1267 24.6702 15.1 24.6631 15.0712C24.6488 15.0147 24.6335 14.9512 24.6085 14.884C24.5972 14.8504 24.5855 14.8158 24.5732 14.7795C24.5584 14.7443 24.5426 14.7086 24.5273 14.6718C24.4997 14.596 24.4522 14.5251 24.416 14.4467C24.369 14.3742 24.324 14.2974 24.2689 14.2264C24.2189 14.1518 24.1545 14.0867 24.0948 14.0185C24.0294 13.9561 23.9671 13.8894 23.8956 13.8366C23.8282 13.7785 23.7542 13.7321 23.6848 13.683C23.6097 13.6451 23.5423 13.5955 23.4698 13.5667C23.4341 13.5502 23.3998 13.5342 23.3661 13.5187C23.3319 13.5059 23.2982 13.4937 23.2666 13.4814C23.2022 13.4553 23.142 13.4398 23.0884 13.4249C23.0613 13.4169 23.0358 13.4099 23.0123 13.403C22.9878 13.3982 22.9653 13.3939 22.9449 13.3902C22.8637 13.3742 22.8177 13.363 22.8177 13.363C22.8177 13.363 22.8647 13.3566 22.9469 13.3497C22.9674 13.3481 22.9903 13.3459 23.0154 13.3438C23.0404 13.3449 23.0679 13.3459 23.0971 13.347C23.1563 13.3497 23.2237 13.3518 23.2941 13.3673C23.3299 13.3737 23.3672 13.3806 23.406 13.3875C23.4438 13.3993 23.4826 13.411 23.5224 13.4233C23.6041 13.4446 23.6832 13.4857 23.768 13.5235C23.8471 13.5721 23.9345 13.6137 24.01 13.6771C24.0907 13.7337 24.1612 13.8051 24.2352 13.8729C24.3006 13.9502 24.3685 14.0238 24.4226 14.1081C24.4839 14.1864 24.5232 14.2782 24.5697 14.3608C24.6059 14.4494 24.6452 14.532 24.6656 14.6168C24.6774 14.6584 24.6891 14.6995 24.6999 14.739C24.7065 14.779 24.7131 14.8184 24.7193 14.8558C24.7346 14.9294 24.7361 14.9992 24.7382 15.06C24.7392 15.0904 24.7402 15.1187 24.7412 15.1453C24.7397 15.1715 24.7376 15.1955 24.7361 15.2173C24.729 15.3043 24.7228 15.3528 24.7228 15.3528L24.7223 15.3533Z" fill="#4B4949"/>
<path id="Vector_27" d="M23.1527 12.6606C21.8695 12.6606 20.8289 13.7475 20.8289 15.0878C20.8289 16.428 21.869 17.5149 23.1527 17.5149C24.4364 17.5149 25.4765 16.4285 25.477 15.0878C25.477 13.7475 24.4364 12.6612 23.1527 12.6606ZM24.5165 16.5122C24.1668 16.8776 23.6858 17.1021 23.1527 17.1021C22.6196 17.1021 22.1386 16.877 21.7889 16.5122C21.4396 16.1475 21.2241 15.6451 21.2241 15.0878C21.2241 14.5304 21.4396 14.0286 21.7889 13.6633C22.1386 13.2985 22.6196 13.0734 23.1527 13.0734C23.6863 13.0734 24.1673 13.2985 24.5165 13.6633C24.8658 14.0286 25.0813 14.5304 25.0813 15.0878C25.0813 15.6451 24.8658 16.1469 24.5165 16.5122Z" fill="#3C3C3B"/>
<path id="Vector_28" d="M9.64914 7.54829V6.83792C9.64914 6.17074 9.13189 5.62996 8.49312 5.62996C7.85435 5.62996 7.3371 6.17074 7.3371 6.83792V7.54829C7.3371 8.21547 9.64914 8.21547 9.64914 7.54829ZM8.49312 6.34513L8.82757 7.06564H8.15816L8.49312 6.34513Z" fill="#666666"/>
<path id="Vector_29" d="M8.4931 6.34514L8.15814 7.06565H8.82755L8.4931 6.34514Z" fill="white"/>
<path id="Vector_30" d="M7.33655 10.201V10.9114C7.33655 11.5786 7.8538 12.1193 8.49257 12.1193C9.13134 12.1193 9.64859 11.5786 9.64859 10.9114V10.201C9.64859 9.53383 7.33655 9.53383 7.33655 10.201ZM8.49308 11.4031L8.15812 10.6826H8.82753L8.49308 11.4031Z" fill="#666666"/>
<path id="Vector_31" d="M8.4931 11.4031L8.82755 10.6831H8.15814L8.4931 11.4031Z" fill="white"/>
<path id="Vector_32" d="M10.4426 7.66669H9.76245C9.12419 7.66669 9.12419 10.0815 9.76245 10.0815H10.4426C11.0814 10.0815 11.5991 9.54129 11.5991 8.87411C11.5991 8.20693 11.0814 7.66669 10.4426 7.66669ZM10.2251 9.22396V8.52479L10.9144 8.87411L10.2251 9.22343V9.22396Z" fill="#666666"/>
<path id="Vector_33" d="M10.2251 9.22397L10.9144 8.87412L10.2251 8.5248V9.22397Z" fill="white"/>
<path id="Vector_34" d="M7.22318 7.66669H6.54305C5.90478 7.66669 5.38702 8.20693 5.38702 8.87411C5.38702 9.54129 5.90478 10.0815 6.54305 10.0815H7.22318C7.86144 10.0815 7.86144 7.66669 7.22318 7.66669ZM6.76108 9.22396L6.07175 8.87464L6.76108 8.52532V9.2245V9.22396Z" fill="#666666"/>
<path id="Vector_35" d="M6.7611 9.22397V8.5248L6.07178 8.87412L6.7611 9.22397Z" fill="white"/>
<path id="Vector_36" d="M26.5069 7.86295C26.774 7.86295 27.015 7.75043 27.1901 7.5675C27.3652 7.38457 27.473 7.13285 27.473 6.85392C27.473 6.575 27.3652 6.32328 27.1901 6.14035C27.015 5.95742 26.774 5.84489 26.5069 5.84489C26.2399 5.84489 25.9989 5.95742 25.8237 6.14035C25.6486 6.32328 25.5408 6.575 25.5408 6.85392C25.5408 7.13285 25.6486 7.38457 25.8237 7.5675C25.9989 7.75043 26.2399 7.86295 26.5069 7.86295Z" fill="white"/>
<path id="Vector_37" d="M26.5069 8.06935C27.1497 8.06935 27.6706 7.52537 27.6706 6.85339C27.6706 6.18142 27.1497 5.63797 26.5069 5.63797C25.864 5.63797 25.3432 6.18248 25.3432 6.85339C25.3432 7.5243 25.864 8.06935 26.5069 8.06935ZM25.8237 6.13982C25.9988 5.95689 26.2398 5.84436 26.5069 5.84436C26.7739 5.84436 27.0149 5.95689 27.1901 6.13982C27.3652 6.32275 27.473 6.57447 27.473 6.85339C27.473 7.13232 27.3652 7.38404 27.1901 7.56697C27.0149 7.74989 26.7739 7.86242 26.5069 7.86242C26.2398 7.86242 25.9988 7.74989 25.8237 7.56697C25.6485 7.38404 25.5408 7.13232 25.5408 6.85339C25.5408 6.57447 25.6485 6.32275 25.8237 6.13982Z" fill="#B3B3B3"/>
<path id="Vector_38" d="M26.5069 9.88635C26.2399 9.88635 25.9989 9.99888 25.8237 10.1818C25.6486 10.3647 25.5408 10.6165 25.5408 10.8954C25.5408 11.1743 25.6486 11.426 25.8237 11.609C25.9989 11.7914 26.2399 11.9044 26.5069 11.9044C26.774 11.9044 27.015 11.7914 27.1901 11.609C27.3652 11.426 27.473 11.1738 27.473 10.8954C27.473 10.617 27.3652 10.3647 27.1901 10.1818C27.015 9.99888 26.774 9.88635 26.5069 9.88635Z" fill="white"/>
<path id="Vector_39" d="M26.5069 9.67995C25.864 9.67995 25.3432 10.2239 25.3432 10.8954C25.3432 11.5668 25.864 12.1108 26.5069 12.1108C27.1497 12.1108 27.6706 11.5663 27.6706 10.8954C27.6706 10.2245 27.1497 9.67995 26.5069 9.67995ZM27.1901 11.6089C27.0149 11.7913 26.7739 11.9044 26.5069 11.9044C26.2398 11.9044 25.9988 11.7913 25.8237 11.6089C25.6485 11.426 25.5408 11.1738 25.5408 10.8954C25.5408 10.617 25.6485 10.3647 25.8237 10.1818C25.9988 9.99887 26.2398 9.88634 26.5069 9.88634C26.7739 9.88634 27.0149 9.99887 27.1901 10.1818C27.3652 10.3647 27.473 10.6164 27.473 10.8954C27.473 11.1743 27.3652 11.426 27.1901 11.6089Z" fill="#B3B3B3"/>
<path id="Vector_40" d="M27.7584 9.58769C27.9335 9.77061 28.1745 9.88314 28.4416 9.88314C28.7092 9.88314 28.9497 9.77061 29.1248 9.58769C29.2999 9.40476 29.4077 9.15304 29.4077 8.87411C29.4077 8.59466 29.2999 8.34346 29.1248 8.16054C28.9497 7.97761 28.7086 7.86508 28.4416 7.86508C28.1745 7.86508 27.9335 7.97761 27.7584 8.16054C27.5833 8.34346 27.4755 8.59519 27.4755 8.87411C27.4755 9.15304 27.5838 9.40476 27.7584 9.58769Z" fill="white"/>
<path id="Vector_41" d="M27.278 8.87411C27.278 9.54556 27.7988 10.0895 28.4416 10.0901C29.0845 10.0901 29.6053 9.54609 29.6053 8.87411C29.6053 8.20214 29.0845 7.65816 28.4416 7.65816C27.7988 7.65816 27.278 8.20214 27.278 8.87411ZM28.4416 7.86508C28.7092 7.86508 28.9497 7.97761 29.1248 8.16054C29.3 8.34347 29.4077 8.59519 29.4077 8.87411C29.4077 9.15304 29.3 9.40476 29.1248 9.58769C28.9497 9.77061 28.7087 9.88314 28.4416 9.88314C28.1746 9.88314 27.9336 9.77061 27.7584 9.58769C27.5833 9.40476 27.4756 9.15304 27.4756 8.87411C27.4756 8.59466 27.5838 8.34347 27.7584 8.16054C27.9336 7.97761 28.1746 7.86508 28.4416 7.86508Z" fill="#B3B3B3"/>
<path id="Vector_42" d="M24.5722 9.88368C24.8393 9.88368 25.0803 9.77115 25.2554 9.58822C25.43 9.40529 25.5383 9.15357 25.5383 8.87465C25.5383 8.59572 25.43 8.344 25.2554 8.16107C25.0803 7.97815 24.8393 7.86562 24.5722 7.86562C24.3052 7.86562 24.0642 7.97815 23.889 8.16107C23.7139 8.344 23.6061 8.59572 23.6061 8.87465C23.6061 9.15357 23.7139 9.40529 23.889 9.58822C24.0642 9.77115 24.3052 9.88368 24.5722 9.88368Z" fill="white"/>
<path id="Vector_43" d="M24.5722 10.0901C25.215 10.0901 25.7359 9.54609 25.7364 8.87411C25.7364 8.20267 25.215 7.65816 24.5722 7.65816C23.9293 7.65816 23.4085 8.20214 23.4085 8.87411C23.4085 9.54556 23.9298 10.0895 24.5722 10.0901ZM23.889 8.16054C24.0641 7.97761 24.3051 7.86508 24.5722 7.86508C24.8392 7.86508 25.0802 7.97761 25.2554 8.16054C25.43 8.34347 25.5383 8.59519 25.5383 8.87411C25.5383 9.15304 25.43 9.40476 25.2554 9.58769C25.0802 9.77061 24.8392 9.88314 24.5722 9.88314C24.3051 9.88314 24.0641 9.77061 23.889 9.58769C23.7139 9.40476 23.6061 9.15304 23.6061 8.87411C23.6061 8.59519 23.7139 8.34347 23.889 8.16054Z" fill="#B3B3B3"/>
<path id="Vector_44" d="M16.837 10.449H15.1857V11.3695H16.837V10.449Z" fill="white"/>
<path id="Vector_45" d="M19.8143 10.449H18.163V11.3695H19.8143V10.449Z" fill="white"/>
<path id="Vector_46" d="M1.99862 16.8466C1.92458 17.0781 1.85156 17.3239 1.78467 17.581C1.71983 17.8386 1.65294 18.1052 1.60188 18.3804C1.57635 18.518 1.54979 18.6567 1.52886 18.7975C1.50537 18.9372 1.48597 19.0785 1.46861 19.2204C1.43491 19.5041 1.41755 19.79 1.40682 20.0716C1.40019 20.3542 1.4104 20.6326 1.43542 20.9009C1.45023 21.0353 1.45942 21.1675 1.48597 21.2955C1.4972 21.3595 1.50843 21.423 1.51916 21.4854C1.53397 21.5473 1.54826 21.6081 1.56307 21.6689C1.57839 21.7286 1.59064 21.7883 1.60749 21.8459C1.62639 21.903 1.64426 21.9595 1.66213 22.015C1.69583 22.1264 1.74076 22.2294 1.78365 22.328C1.80561 22.3771 1.82348 22.4267 1.84799 22.472C1.8725 22.5174 1.8965 22.5611 1.91999 22.6038C1.94347 22.6464 1.96645 22.688 1.98892 22.728C2.01496 22.7664 2.04049 22.8032 2.065 22.8389C2.11657 22.9083 2.15538 22.9797 2.20746 23.0331C2.25648 23.0885 2.30141 23.1392 2.34226 23.1851C2.38056 23.2325 2.42345 23.2672 2.45919 23.2981C2.49442 23.3291 2.52506 23.3547 2.54957 23.3765C2.59859 23.4187 2.62412 23.4416 2.62412 23.4416C2.62412 23.4416 2.60216 23.4144 2.56029 23.3643C2.53987 23.3392 2.51434 23.3083 2.48472 23.2725C2.45562 23.2357 2.41885 23.1973 2.38719 23.1451C2.35349 23.0955 2.31673 23.04 2.27639 22.9797C2.23401 22.9211 2.20235 22.848 2.16151 22.776C2.1421 22.7392 2.12168 22.7019 2.10074 22.6629C2.08338 22.6219 2.06602 22.5798 2.04764 22.536C2.02926 22.4934 2.01036 22.4491 1.99096 22.4043C1.97156 22.3595 1.95879 22.3104 1.94194 22.2619C1.90926 22.1643 1.87505 22.0635 1.85208 21.9547C1.83829 21.9008 1.82501 21.8464 1.81123 21.791C1.79897 21.735 1.79029 21.6774 1.77957 21.6193C1.76936 21.5611 1.75914 21.5025 1.74893 21.4427C1.74229 21.3825 1.73515 21.3211 1.72851 21.2598C1.71217 21.1371 1.70451 21.0102 1.69634 20.8811C1.6846 20.7532 1.6897 20.6204 1.68562 20.4876C1.68664 20.3548 1.69174 20.2193 1.69379 20.0833C1.70757 19.8113 1.728 19.5351 1.76374 19.2593C1.77855 19.1217 1.79591 18.9836 1.81684 18.8466C1.83523 18.7095 1.85973 18.5735 1.88271 18.4386C1.90569 18.3036 1.93377 18.1703 1.95675 18.038C1.98381 17.9063 2.01088 17.7762 2.03743 17.6482C2.09615 17.3933 2.15027 17.1463 2.21001 16.9138C2.26873 16.6808 2.32694 16.4616 2.38209 16.2589C2.49391 15.8541 2.59399 15.5187 2.66599 15.2835C2.73798 15.0483 2.78139 14.9144 2.78139 14.9144C2.78139 14.9144 2.51434 15.4088 2.22125 16.2024C2.14823 16.4008 2.07011 16.6162 1.99862 16.8482V16.8466Z" fill="white"/>
<path id="Vector_47" d="M33.1499 19.2204C33.1331 19.0785 33.1137 18.9372 33.0902 18.7975C33.0698 18.6567 33.0427 18.5186 33.0177 18.3804C32.9666 18.1052 32.8997 17.8386 32.8349 17.581C32.7685 17.3239 32.6955 17.0781 32.6215 16.8466C32.55 16.6146 32.4718 16.3992 32.3988 16.2008C32.1057 15.4072 31.8387 14.9128 31.8387 14.9128C31.8387 14.9128 31.8826 15.0467 31.9541 15.2819C32.0261 15.5165 32.1262 15.8525 32.238 16.2573C32.2931 16.46 32.3513 16.6797 32.4101 16.9122C32.4698 17.1447 32.5239 17.3917 32.5826 17.6466C32.6092 17.7746 32.6363 17.9047 32.6633 18.0364C32.6863 18.1687 32.7144 18.3015 32.7374 18.437C32.7608 18.5719 32.7854 18.7079 32.8037 18.845C32.8252 18.982 32.842 19.1196 32.8568 19.2577C32.8926 19.5335 32.913 19.8097 32.9268 20.0817C32.9288 20.2177 32.9339 20.3532 32.935 20.486C32.9304 20.6188 32.9355 20.7515 32.9242 20.8795C32.9161 21.0086 32.9084 21.1355 32.8921 21.2582C32.8849 21.3201 32.8783 21.3809 32.8716 21.4411C32.8614 21.5009 32.8512 21.5595 32.841 21.6177C32.8303 21.6758 32.8216 21.7334 32.8094 21.7894C32.7956 21.8448 32.7818 21.8992 32.7685 21.9531C32.746 22.0624 32.7113 22.1632 32.6786 22.2603C32.6618 22.3088 32.649 22.3579 32.6296 22.4027C32.6102 22.448 32.5913 22.4918 32.5729 22.5344C32.5551 22.5781 32.5372 22.6203 32.5198 22.6613C32.4989 22.7003 32.479 22.7381 32.4591 22.7744C32.4177 22.8464 32.3861 22.9195 32.3442 22.9781C32.3039 23.0384 32.2666 23.0933 32.2334 23.1435C32.2017 23.1957 32.165 23.2347 32.1359 23.2709C32.1062 23.3072 32.0807 23.3381 32.0598 23.3627C32.0184 23.4128 31.996 23.44 31.996 23.44C31.996 23.44 32.022 23.4171 32.0705 23.3749C32.095 23.3536 32.1251 23.3275 32.1609 23.2965C32.1966 23.2656 32.239 23.2309 32.2778 23.1835C32.3187 23.1376 32.3636 23.0869 32.4126 23.0315C32.4647 22.9781 32.5035 22.9067 32.5551 22.8373C32.5796 22.8016 32.6046 22.7648 32.6306 22.7264C32.6531 22.6864 32.6761 22.6453 32.6996 22.6021C32.7231 22.5595 32.7471 22.5152 32.7716 22.4704C32.7961 22.4251 32.814 22.3755 32.8359 22.3264C32.8788 22.2278 32.9242 22.1248 32.9574 22.0134C32.9753 21.9579 32.9937 21.9019 33.0121 21.8443C33.0289 21.7867 33.0417 21.727 33.0565 21.6672C33.0708 21.607 33.0851 21.5457 33.0999 21.4838C33.1106 21.4214 33.1218 21.3585 33.1331 21.2939C33.1596 21.1659 33.1688 21.0342 33.1836 20.8993C33.2087 20.631 33.2189 20.3526 33.2122 20.07C33.2015 19.7884 33.1841 19.502 33.1504 19.2188L33.1499 19.2204Z" fill="white"/>
<path id="Vector_48" d="M12.8098 13.6777C12.7342 13.6142 12.6469 13.5726 12.5678 13.5241C12.4835 13.4862 12.4039 13.4451 12.3222 13.4238C12.2823 13.4115 12.2435 13.3998 12.2058 13.3881C12.1675 13.3811 12.1297 13.3742 12.0939 13.3678C12.0235 13.3518 11.9561 13.3497 11.8968 13.3475C11.8677 13.3465 11.8402 13.3454 11.8151 13.3443C11.7906 13.3459 11.7677 13.3481 11.7472 13.3502C11.665 13.3577 11.618 13.3635 11.618 13.3635C11.618 13.3635 11.6645 13.3747 11.7457 13.3907C11.7661 13.395 11.7881 13.3993 11.8126 13.4035C11.8361 13.4105 11.8616 13.4179 11.8887 13.4254C11.9428 13.4403 12.0025 13.4563 12.0669 13.4819C12.099 13.4937 12.1322 13.5065 12.1669 13.5193C12.2001 13.5347 12.2349 13.5507 12.2701 13.5673C12.3421 13.5961 12.41 13.6457 12.4851 13.6835C12.5545 13.7326 12.6285 13.779 12.6959 13.8371C12.7679 13.8899 12.8297 13.9566 12.8956 14.019C12.9553 14.0873 13.0192 14.1523 13.0697 14.227C13.1254 14.2979 13.1698 14.3747 13.2168 14.4472C13.253 14.5256 13.3005 14.5966 13.3281 14.6723C13.3439 14.7091 13.3592 14.7448 13.374 14.78C13.3863 14.8163 13.398 14.851 13.4093 14.8846C13.4338 14.9512 13.4491 15.0152 13.4639 15.0717C13.4716 15.1005 13.4782 15.1267 13.4848 15.1517C13.4894 15.1768 13.4935 15.2003 13.4971 15.2211C13.5124 15.3048 13.5231 15.3539 13.5231 15.3539C13.5231 15.3539 13.5293 15.3053 13.5364 15.2184C13.5379 15.1965 13.54 15.172 13.5415 15.1464C13.5405 15.1197 13.5395 15.0915 13.5384 15.0611C13.5364 15.0003 13.5344 14.9304 13.519 14.8568C13.5129 14.819 13.5063 14.78 13.4996 14.74C13.4884 14.7006 13.4772 14.66 13.4654 14.6179C13.445 14.5326 13.4052 14.4499 13.3689 14.3619C13.3225 14.2798 13.2831 14.188 13.2219 14.1091C13.1677 14.0249 13.0998 13.9513 13.0345 13.8739C12.9604 13.8062 12.89 13.7347 12.8093 13.6782L12.8098 13.6777Z" fill="white"/>
<path id="Vector_49" d="M24.7382 15.06C24.7361 14.9992 24.7341 14.9294 24.7193 14.8558C24.7131 14.8179 24.7065 14.779 24.6999 14.739C24.6886 14.6995 24.6774 14.659 24.6656 14.6168C24.6452 14.5315 24.6054 14.4488 24.5697 14.3608C24.5232 14.2787 24.4839 14.187 24.4226 14.1081C24.3685 14.0238 24.3006 13.9502 24.2352 13.8729C24.1617 13.8051 24.0907 13.7337 24.01 13.6771C23.9345 13.6137 23.8471 13.5721 23.768 13.5235C23.6837 13.4857 23.6041 13.4446 23.5224 13.4233C23.4826 13.411 23.4438 13.3993 23.406 13.3875C23.3672 13.3806 23.3299 13.3737 23.2941 13.3673C23.2237 13.3513 23.1563 13.3491 23.0971 13.347C23.0679 13.3459 23.0409 13.3449 23.0154 13.3438C22.9903 13.3454 22.9679 13.3475 22.9469 13.3497C22.8647 13.3571 22.8177 13.363 22.8177 13.363C22.8177 13.363 22.8637 13.3742 22.9449 13.3902C22.9648 13.3945 22.9878 13.3987 23.0123 13.403C23.0358 13.4099 23.0613 13.4174 23.0884 13.4249C23.142 13.4398 23.2022 13.4558 23.2666 13.4814C23.2982 13.4931 23.3319 13.5059 23.3661 13.5187C23.3993 13.5342 23.4341 13.5502 23.4698 13.5667C23.5423 13.5955 23.6097 13.6451 23.6848 13.683C23.7542 13.7321 23.8282 13.7785 23.8956 13.8366C23.9676 13.8894 24.0294 13.9561 24.0948 14.0185C24.1545 14.0867 24.2184 14.1518 24.2689 14.2264C24.3246 14.2974 24.369 14.3742 24.416 14.4467C24.4522 14.5251 24.4997 14.596 24.5273 14.6718C24.5431 14.7086 24.5584 14.7443 24.5732 14.7795C24.5855 14.8158 24.5972 14.8504 24.6085 14.884C24.6335 14.9507 24.6483 15.0147 24.6631 15.0712C24.6708 15.1 24.6774 15.1261 24.684 15.1512C24.6886 15.1763 24.6927 15.1997 24.6963 15.2205C24.7116 15.3043 24.7223 15.3533 24.7223 15.3533C24.7223 15.3533 24.7285 15.3048 24.7356 15.2179C24.7371 15.196 24.7392 15.1715 24.7407 15.1459C24.7397 15.1192 24.7387 15.0909 24.7376 15.0605L24.7382 15.06Z" fill="white"/>
</g>
</g>
<defs>
<clipPath id="clip0_23_4519">
<rect width="34" height="25.9474" fill="white" transform="translate(0.5 0.526321)"/>
</clipPath>
</defs>
</svg>
