<svg width="38" height="29" viewBox="0 0 38 29" fill="none" xmlns="http://www.w3.org/2000/svg">
<g id="Single-Player-Icon">
<g id="Group">
<path id="Vector" d="M34.4311 23.2136H34.2817V20.1274C34.2817 19.004 33.4255 18.0796 32.326 17.9614C32.1752 16.4116 31.1383 15.0524 29.6518 14.5016C29.3436 14.3874 29.0201 14.3146 28.6927 14.2786C28.5894 13.5639 28.0132 13.002 27.2885 12.9158C27.2939 12.3423 27.2836 11.7489 27.2532 11.1408C27.2523 11.1217 27.2509 11.1021 27.25 11.083C27.2456 10.9955 27.2406 10.908 27.2353 10.8201C27.2335 10.7894 27.2312 10.7583 27.2295 10.7277C27.2241 10.6433 27.2183 10.5589 27.212 10.474L27.2102 10.4496L28.6905 10.255C28.9387 10.2226 29.017 9.27336 28.8654 8.13576C28.7137 6.99773 28.3894 6.10178 28.1411 6.13465L26.5786 6.33987C26.5625 6.27368 26.5455 6.20705 26.5289 6.14087C26.5177 6.09645 26.507 6.05158 26.4958 6.00716C26.4735 5.9201 26.4502 5.83304 26.4269 5.74597C26.4171 5.70999 26.4081 5.67446 26.3983 5.63848C26.3647 5.51544 26.3299 5.39239 26.2936 5.26935H26.2829C25.9845 4.09133 23.517 3.13586 20.315 2.91554C19.8573 2.884 19.3849 2.86757 18.9018 2.86757C15.2775 2.86757 12.2615 3.79505 11.6174 5.0206C11.5744 5.10233 11.5422 5.1854 11.5207 5.26935L11.5145 5.29156C11.4814 5.40572 11.4487 5.51988 11.4174 5.63404C11.4058 5.67712 11.3946 5.71977 11.383 5.76285C11.3619 5.84192 11.3405 5.92099 11.3203 5.99961C11.3078 6.04847 11.2962 6.09734 11.2837 6.1462C11.2676 6.21105 11.251 6.27546 11.2353 6.34031L9.67279 6.13509C9.42452 6.10267 9.1002 6.99861 8.94856 8.13621C8.79691 9.27425 8.87519 10.2231 9.12346 10.2555L10.6037 10.45C10.5872 10.6717 10.5742 10.8916 10.563 11.1097C10.5625 11.1203 10.5617 11.131 10.5612 11.1412H10.5617C10.5326 11.7293 10.5214 12.3041 10.5254 12.8603C9.7484 12.8771 9.10736 13.4373 8.97182 14.1742C7.66604 14.0036 6.5052 13.1281 6.04757 11.8768C5.94379 11.5934 5.87758 11.3016 5.84672 11.0044C6.92704 10.868 7.76266 9.95431 7.76266 8.84471V5.75841H7.91208C8.13082 5.75841 8.30797 5.58251 8.30797 5.3653V4.5071C8.30797 4.28989 8.13082 4.11399 7.91208 4.11399H7.39003L8.13664 2.62948C8.24042 2.42337 8.15587 2.17239 7.94831 2.06934C7.74074 1.96629 7.488 2.0498 7.38422 2.25635L6.44973 4.11399H6.41976L6.85815 2.11643C6.9078 1.89122 6.76376 1.66867 6.53696 1.61937C6.31016 1.57006 6.08604 1.71309 6.03639 1.9383L5.57429 4.0438V1.91742C5.57429 1.68689 5.38596 1.49988 5.15379 1.49988C4.92162 1.49988 4.73329 1.68689 4.73329 1.91742V4.11399H4.72793L4.26493 2.17195C4.21125 1.94763 3.9849 1.8086 3.75899 1.8619C3.53309 1.9152 3.39307 2.13997 3.44675 2.36429L3.86367 4.11399H3.22353C3.00478 4.11399 2.82764 4.28989 2.82764 4.5071V5.3653C2.82764 5.58251 3.00478 5.75841 3.22353 5.75841H3.37294V8.84471C3.37294 9.96808 4.22915 10.8925 5.3287 11.0106C5.47945 12.5604 6.51638 13.9197 8.00288 14.4705C8.3111 14.5846 8.63452 14.6575 8.96198 14.6935C9.07426 15.4708 9.74616 16.0687 10.5599 16.0687C10.6104 16.0687 10.6605 16.0656 10.7102 16.0612C10.924 18.0521 11.2667 19.5406 11.4326 20.1878L11.4335 20.1913C11.438 20.2082 11.442 20.2237 11.446 20.2393L11.4532 20.2664C11.4568 20.2806 11.4604 20.2939 11.4639 20.3073L11.4706 20.3326C11.4738 20.3441 11.4765 20.3548 11.4796 20.3654C11.4823 20.3748 11.4845 20.3837 11.4867 20.3921L11.4935 20.4161C11.4966 20.4272 11.4993 20.4378 11.502 20.4476L11.5046 20.4569C11.5163 20.4983 11.5239 20.5258 11.5275 20.5378L11.5284 20.5413L11.5297 20.5453C11.9171 21.8748 15.0695 22.9116 18.9014 22.9116C22.7333 22.9116 25.8856 21.8748 26.273 20.5453H26.2833C26.2833 20.5453 26.3039 20.4756 26.3393 20.3441C26.3397 20.3419 26.3401 20.3401 26.341 20.3379C26.346 20.3197 26.3509 20.3006 26.3562 20.2802C26.358 20.2726 26.3603 20.2646 26.3625 20.2571C26.367 20.2406 26.3715 20.2233 26.3759 20.2051C26.3773 20.1993 26.3786 20.194 26.3804 20.1882C26.545 19.5463 26.8828 18.0787 27.097 16.114C27.8888 16.1127 28.546 15.5454 28.6833 14.7983C29.9891 14.9689 31.1499 15.8444 31.6075 17.0957C31.7113 17.3791 31.7775 17.6709 31.8084 17.9681C30.7281 18.1045 29.8925 19.0182 29.8925 20.1278V23.2141H29.743C29.5243 23.2141 29.3471 23.39 29.3471 23.6072V24.4654C29.3471 24.6826 29.5243 24.8585 29.743 24.8585H30.2651L29.5185 26.343C29.4147 26.5491 29.4988 26.8001 29.7068 26.9032C29.9144 27.0062 30.1671 26.9227 30.2709 26.7162L31.2054 24.8585H31.2354L30.797 26.8561C30.7473 27.0813 30.8914 27.3038 31.1182 27.3531C31.345 27.4024 31.5691 27.2594 31.6187 27.0342L32.0808 24.9287V27.0555C32.0808 27.2861 32.2692 27.4731 32.5013 27.4731C32.7335 27.4731 32.9218 27.2861 32.9218 27.0555V24.859H32.9272L33.3902 26.801C33.4439 27.0253 33.6702 27.1644 33.8961 27.111C34.122 27.0577 34.262 26.833 34.2084 26.6087L33.7914 24.859H34.4316C34.6503 24.859 34.8275 24.6831 34.8275 24.4658V23.6077C34.8275 23.3904 34.6503 23.2145 34.4316 23.2145L34.4311 23.2136Z" fill="white"/>
<path id="Vector_2" d="M22.1311 23.8708C22.0085 23.809 21.8452 23.7606 21.6399 23.7158C21.0257 23.5834 20.0335 23.4999 18.9067 23.4999C17.9914 23.4999 17.1634 23.5554 16.5568 23.6469C16.2531 23.6927 16.0057 23.7469 15.8227 23.8117C15.731 23.8446 15.655 23.8792 15.591 23.9259C15.5593 23.9494 15.5293 23.9765 15.5047 24.0129C15.4801 24.0489 15.4613 24.0973 15.4617 24.1493C15.4617 24.2013 15.4805 24.2497 15.5047 24.2857C15.5521 24.3532 15.6125 24.3914 15.6823 24.4283C15.8048 24.49 15.9681 24.5384 16.1735 24.5833C16.7876 24.7156 17.7798 24.7992 18.9067 24.7992C19.8219 24.7992 20.65 24.7436 21.2565 24.6521C21.5603 24.6064 21.8077 24.5522 21.9906 24.4873C22.0823 24.4545 22.1584 24.4198 22.2223 24.3732C22.2541 24.3496 22.2841 24.3225 22.3087 24.2861C22.3333 24.2501 22.3521 24.2017 22.3516 24.1497C22.3516 24.0978 22.3328 24.0494 22.3087 24.0134C22.2613 23.9459 22.2009 23.9072 22.1311 23.8708ZM21.9745 24.1617C21.8882 24.203 21.7388 24.2484 21.5469 24.2883C20.968 24.41 19.9991 24.4918 18.9067 24.4913C18.0049 24.4913 17.1876 24.4358 16.6033 24.3479C16.3117 24.3039 16.0773 24.2515 15.9274 24.1977C15.8804 24.1813 15.8429 24.1644 15.8151 24.1493L15.8388 24.1373C15.9252 24.096 16.0746 24.0507 16.2665 24.0107C16.8454 23.889 17.8143 23.8073 18.9067 23.8077C19.8085 23.8077 20.6258 23.8632 21.21 23.9512C21.5017 23.9952 21.7361 24.0476 21.886 24.1013C21.9329 24.1178 21.9705 24.1346 21.9982 24.1497L21.9745 24.1617Z" fill="white"/>
<path id="Vector_3" d="M20.9807 25.7304C20.8854 25.6745 20.7678 25.6291 20.6291 25.5887C20.2135 25.4683 19.5989 25.3955 18.9073 25.3951C18.3052 25.3951 17.7608 25.451 17.3564 25.5443C17.1537 25.5914 16.9864 25.6469 16.8576 25.7171C16.7932 25.7526 16.7368 25.7917 16.6912 25.8432C16.646 25.8939 16.6089 25.9641 16.6089 26.0449C16.6089 26.1253 16.6456 26.1959 16.6912 26.2466C16.7315 26.2919 16.7793 26.3274 16.8339 26.3594C16.9292 26.4154 17.0468 26.4607 17.1855 26.5011C17.6011 26.6215 18.2157 26.6943 18.9073 26.6948C19.5094 26.6948 20.0538 26.6388 20.4582 26.5455C20.6609 26.4984 20.8282 26.4429 20.957 26.3727C21.0214 26.3372 21.0773 26.2981 21.1234 26.2466C21.1686 26.1959 21.2057 26.1258 21.2057 26.0449C21.2057 25.9645 21.169 25.8939 21.1234 25.8432C21.0832 25.7979 21.0353 25.7624 20.9807 25.7304ZM20.8483 26.0782C20.7964 26.1138 20.7038 26.156 20.5826 26.1933C20.4005 26.2501 20.154 26.2994 19.8677 26.3332C19.581 26.3674 19.254 26.3869 18.9069 26.3869C18.3249 26.3869 17.7979 26.3319 17.4262 26.2457C17.241 26.203 17.0942 26.1515 17.0066 26.1031C16.9645 26.0804 16.9372 26.0587 16.9252 26.0454C16.9323 26.0374 16.9439 26.0258 16.9654 26.0116C17.0173 25.9761 17.1099 25.9339 17.2311 25.8965C17.4132 25.8397 17.6597 25.7904 17.946 25.7566C18.2327 25.7224 18.5597 25.7029 18.9069 25.7029C19.4888 25.7029 20.0158 25.758 20.3875 25.8441C20.5727 25.8868 20.7195 25.9383 20.8071 25.9867C20.8492 26.0094 20.8765 26.0311 20.8886 26.0445C20.8814 26.0525 20.8698 26.064 20.8483 26.0782Z" fill="white"/>
</g>
<g id="Group_2">
<path id="Vector_4" d="M4.26495 2.17202C4.21126 1.9477 3.98491 1.80866 3.75901 1.86197C3.5331 1.91527 3.39308 2.14004 3.44677 2.36436L3.86368 4.11406H4.72794L4.26495 2.17202Z" fill="#C5BEC0"/>
<path id="Vector_5" d="M6.4198 4.11399L6.85819 2.11643C6.90785 1.89122 6.7638 1.66867 6.537 1.61937C6.3102 1.57006 6.08609 1.71309 6.03643 1.9383L5.57433 4.0438V1.91742C5.57433 1.68689 5.386 1.49988 5.15383 1.49988C4.92167 1.49988 4.73334 1.68689 4.73334 1.91742V4.11399H6.4198Z" fill="#C5BEC0"/>
<path id="Vector_6" d="M8.13662 2.62933C8.2404 2.42322 8.15585 2.17225 7.94829 2.06919C7.74072 1.96614 7.48798 2.04965 7.38419 2.2562L6.44971 4.11384H7.39001L8.13662 2.62933Z" fill="#C5BEC0"/>
<path id="Vector_7" d="M5.32916 11.0102C5.47992 12.56 6.51684 13.9193 8.00335 14.4701C8.31156 14.5842 8.63499 14.6571 8.96244 14.6931C8.9517 14.618 8.9441 14.5416 8.9441 14.4634C8.9441 14.3643 8.95439 14.268 8.97183 14.1742C7.66605 14.0037 6.50521 13.1281 6.04759 11.8768C5.9438 11.5934 5.8776 11.3016 5.84673 11.0044C5.75503 11.016 5.66243 11.024 5.56804 11.024C5.48707 11.024 5.40789 11.0191 5.32916 11.0106V11.0102Z" fill="black"/>
<path id="Vector_8" d="M3.37299 8.8442C3.37299 9.96758 4.22919 10.892 5.32875 11.0101C5.40703 11.0186 5.48666 11.0234 5.56762 11.0234C5.66246 11.0234 5.75506 11.0154 5.84632 11.0039C6.92664 10.8675 7.76226 9.95381 7.76226 8.8442V5.7579H3.37299V8.8442Z" fill="#C5BEC0"/>
<path id="Vector_9" d="M3.22353 5.75801H7.91208C8.13082 5.75801 8.30797 5.58211 8.30797 5.36489V4.5067C8.30797 4.28949 8.13082 4.11359 7.91208 4.11359H3.22353C3.00478 4.11359 2.82764 4.28949 2.82764 4.5067V5.36489C2.82764 5.58211 3.00478 5.75801 3.22353 5.75801Z" fill="#4B4949"/>
<path id="Vector_10" d="M8.96196 14.6931C9.07425 15.4705 9.74615 16.0683 10.5599 16.0683C10.6104 16.0683 10.6605 16.0652 10.7102 16.0608C10.6068 15.0982 10.5335 14.0188 10.5245 12.8599C9.74749 12.8768 9.10645 13.4369 8.97091 14.1738C8.95346 14.268 8.94318 14.3644 8.94318 14.463C8.94318 14.5412 8.95078 14.6176 8.96152 14.6927L8.96196 14.6931Z" fill="#4B4949"/>
<path id="Vector_11" d="M33.3893 26.7998C33.4429 27.0241 33.6693 27.1631 33.8952 27.1098C34.1211 27.0565 34.2611 26.8317 34.2074 26.6074L33.7905 24.8577H32.9263L33.3893 26.7998Z" fill="#C5BEC0"/>
<path id="Vector_12" d="M31.2344 24.8577L30.796 26.8548C30.7464 27.0801 30.8904 27.3026 31.1172 27.3519C31.344 27.4012 31.5682 27.2582 31.6178 27.033L32.0799 24.9275V27.0543C32.0799 27.2848 32.2682 27.4718 32.5004 27.4718C32.7326 27.4718 32.9209 27.2848 32.9209 27.0543V24.8577H31.2344Z" fill="#C5BEC0"/>
<path id="Vector_13" d="M29.5176 26.3422C29.4138 26.5483 29.4979 26.7993 29.7059 26.9024C29.9135 27.0054 30.1662 26.9219 30.27 26.7154L31.2045 24.8577H30.2642L29.5176 26.3422Z" fill="#C5BEC0"/>
<path id="Vector_14" d="M28.6829 14.798C29.9886 14.9686 31.1495 15.8441 31.6071 17.0954C31.7109 17.3788 31.7771 17.6707 31.808 17.9678C31.8997 17.9563 31.9923 17.9483 32.0867 17.9483C32.1676 17.9483 32.2468 17.9532 32.3255 17.9616C32.1748 16.4118 31.1379 15.0525 29.6513 14.5017C29.3431 14.3876 29.0197 14.3147 28.6923 14.2787C28.703 14.3538 28.7106 14.4302 28.7106 14.5084C28.7106 14.6075 28.7003 14.7038 28.6829 14.7976V14.798Z" fill="black"/>
<path id="Vector_15" d="M31.8075 17.9678C30.7272 18.1041 29.8915 19.0178 29.8915 20.1275V23.2137H34.2808V20.1275C34.2808 19.0041 33.4246 18.0797 32.3251 17.9615C32.2468 17.9531 32.1671 17.9482 32.0862 17.9482C31.9913 17.9482 31.8987 17.9562 31.8075 17.9678Z" fill="#C5BEC0"/>
<path id="Vector_16" d="M29.7422 23.2136C29.5235 23.2136 29.3463 23.3895 29.3463 23.6067V24.4649C29.3463 24.6821 29.5235 24.858 29.7422 24.858H34.4308C34.6495 24.858 34.8266 24.6821 34.8266 24.4649V23.6067C34.8266 23.3895 34.6495 23.2136 34.4308 23.2136H29.7422Z" fill="#4B4949"/>
<path id="Vector_17" d="M28.6829 14.7979C28.7003 14.7038 28.7106 14.6078 28.7106 14.5088C28.7106 14.4306 28.703 14.3542 28.6923 14.2791C28.5889 13.5644 28.0127 13.0025 27.2881 12.9163C27.2769 14.0752 27.2022 15.1537 27.097 16.1137C27.8888 16.1123 28.546 15.5451 28.6833 14.7979H28.6829Z" fill="#4B4949"/>
<path id="Vector_18" d="M11.4792 20.3654C11.4765 20.3548 11.4733 20.3441 11.4702 20.3326C11.4733 20.3441 11.476 20.3548 11.4792 20.3654Z" fill="#4B4949"/>
<path id="Vector_19" d="M11.4165 5.63358C11.4478 5.51943 11.48 5.40527 11.5136 5.29111C11.4805 5.40527 11.4478 5.51943 11.4165 5.63358Z" fill="#4B4949"/>
<path id="Vector_20" d="M27.2349 10.8202C27.2402 10.9081 27.2452 10.9961 27.2496 11.0836C27.2452 10.9961 27.2402 10.9086 27.2349 10.8202Z" fill="#4B4949"/>
<path id="Vector_21" d="M11.2827 6.14572C11.2666 6.21057 11.2501 6.27498 11.2344 6.33984C11.2501 6.27543 11.2662 6.21057 11.2823 6.14572H11.2827Z" fill="#4B4949"/>
<path id="Vector_22" d="M11.4326 20.1873H21.5062V18.9648C21.5062 18.6175 21.7899 18.3358 22.1397 18.3358H24.1415C24.4913 18.3358 24.7749 18.6175 24.7749 18.9648V20.1873H26.3804C26.3209 20.42 26.2838 20.5448 26.2838 20.5448C26.2838 20.5448 26.805 18.7889 27.0971 16.1131C27.2017 15.1527 27.2769 14.0742 27.2881 12.9157C27.2934 12.3423 27.2832 11.7488 27.2527 11.1407H10.5603C10.5715 10.9124 10.5858 10.6818 10.6033 10.4495C10.5415 11.2806 10.5192 12.0877 10.525 12.8597C10.5339 14.0187 10.6073 15.0981 10.7106 16.0606C10.9245 18.0515 11.2671 19.5401 11.4331 20.1873H11.4326ZM23.288 12.273C25.9872 12.273 26.07 12.2743 25.9872 14.9533C25.9045 17.6336 25.3918 17.6336 23.288 17.6336C21.1842 17.6336 20.7529 17.6336 20.5887 14.9533C20.4331 12.416 20.5852 12.273 23.288 12.273ZM15.1192 12.1504C17.8184 12.1504 17.9011 12.1521 17.8184 15.7977C17.7356 19.445 17.223 19.445 15.1192 19.445C13.0153 19.445 12.5841 19.445 12.4199 15.7977C12.2642 12.3449 12.4163 12.1504 15.1192 12.1504Z" fill="#4B4949"/>
<g id="Group_3">
<path id="Vector_23" d="M27.2523 11.0832C27.2478 10.9957 27.2429 10.9081 27.2375 10.8202C27.2357 10.7895 27.2335 10.7585 27.2317 10.7278C27.2263 10.6434 27.2205 10.559 27.2142 10.4742C27.2138 10.4662 27.2133 10.4582 27.2124 10.4497L27.0483 10.4715L27.0474 10.4653C26.8031 10.4337 26.4967 9.564 26.3504 8.46683C26.2041 7.36966 26.2721 6.45061 26.4998 6.35689L26.4989 6.35067L26.5804 6.34001C26.5643 6.27382 26.5477 6.20719 26.5311 6.14101C26.52 6.09659 26.5092 6.05172 26.498 6.0073C26.4757 5.92024 26.4524 5.83318 26.4292 5.74611C26.4193 5.71013 26.4104 5.6746 26.4005 5.63862C26.367 5.51558 26.3321 5.39253 26.2958 5.26949C25.955 3.92268 22.7704 2.86771 18.904 2.86771C15.2797 2.86771 12.2638 3.79519 11.6196 5.02074C11.5767 5.10247 11.5444 5.18554 11.523 5.26949C11.5207 5.27704 11.5189 5.28415 11.5167 5.2917C11.4836 5.40586 11.451 5.52002 11.4196 5.63418C11.408 5.67726 11.3968 5.71991 11.3852 5.76299C11.3642 5.84206 11.3427 5.92113 11.3226 5.99975C11.31 6.04861 11.2984 6.09748 11.2859 6.14634C11.2698 6.21119 11.2537 6.2756 11.238 6.34045L11.3194 6.35111L11.3185 6.35733C11.5462 6.45106 11.6142 7.37011 11.468 8.46728C11.3217 9.56445 11.0152 10.4342 10.771 10.4657L10.7701 10.4719L10.6059 10.4502C10.5889 10.6825 10.5746 10.913 10.563 11.1414H27.2554C27.2545 11.1223 27.2532 11.1027 27.2523 11.0836V11.0832ZM18.913 9.76256C12.4275 9.76256 12.8811 8.61031 12.8811 7.18843C12.8811 5.76655 15.5817 4.6143 18.913 4.6143C22.2443 4.6143 24.9449 5.76655 24.9449 7.18843C24.9449 8.61031 24.9449 9.76256 18.913 9.76256Z" fill="#C5BEC0"/>
</g>
<path id="Vector_24" d="M24.7745 20.1874H11.4327C11.4327 20.1874 11.4331 20.1896 11.4336 20.1909C11.438 20.2078 11.4421 20.2234 11.4461 20.2389C11.4483 20.2478 11.451 20.2571 11.4533 20.266C11.4568 20.2802 11.4604 20.2935 11.464 20.3069C11.4662 20.3158 11.4685 20.3242 11.4707 20.3322C11.4738 20.3437 11.4765 20.3544 11.4796 20.3651C11.4823 20.3744 11.4846 20.3833 11.4868 20.3917C11.489 20.4001 11.4913 20.4081 11.4935 20.4157C11.4966 20.4268 11.4993 20.4375 11.502 20.4472C11.5029 20.4503 11.5038 20.4535 11.5047 20.4566C11.5163 20.4979 11.5239 20.5254 11.5275 20.5374L11.5284 20.541L11.5298 20.545C11.9171 21.8744 15.0695 22.9112 18.9014 22.9112C22.7333 22.9112 25.8857 21.8744 26.2731 20.545H26.2834C26.2834 20.545 26.3205 20.4201 26.38 20.1874H24.7745Z" fill="black"/>
<path id="Vector_25" d="M15.1191 19.4455C17.2229 19.4455 17.7356 19.4455 17.8183 15.7982C17.9011 12.1527 17.8183 12.1509 15.1191 12.1509C12.4198 12.1509 12.2642 12.3455 12.4198 15.7982C12.584 19.4455 12.9786 19.4455 15.1191 19.4455ZM13.0962 13.6687C13.2577 12.8203 13.7713 12.751 15.1164 12.751C16.4615 12.751 16.9764 12.7519 17.1236 13.6687C17.1656 13.9313 17.1809 14.2697 17.1818 14.7042C17.1822 15.0018 17.1764 15.3443 17.1683 15.7396V15.7658C17.1598 16.1487 17.1464 16.4832 17.1263 16.775C17.0963 17.2063 17.0507 17.5448 16.984 17.8104C16.7402 18.7801 16.2124 18.7806 15.1168 18.7806C14.0213 18.7806 13.5105 18.7806 13.2711 17.8104C13.2058 17.5448 13.1588 17.2063 13.124 16.775C13.1002 16.4832 13.0815 16.1491 13.0654 15.7658L13.0645 15.7396C13.0484 15.3443 13.0367 15.0022 13.0345 14.7042C13.0309 14.2706 13.047 13.9317 13.0971 13.6687H13.0962Z" fill="#C5BEC0"/>
<path id="Vector_26" d="M15.1165 12.7509C13.7713 12.7509 13.2578 12.8202 13.0963 13.6687H17.1237C16.9761 12.7514 16.4961 12.7509 15.1165 12.7509Z" fill="#666666"/>
<path id="Vector_27" d="M17.1818 14.7041C17.1809 14.2697 17.1662 13.9317 17.1237 13.6687H13.0963C13.0462 13.9317 13.0305 14.2706 13.0336 14.7041H17.1814H17.1818Z" fill="#4B4949"/>
<path id="Vector_28" d="M13.0641 15.7391H17.1684C17.1765 15.3442 17.1823 15.0013 17.1818 14.7036H13.0341C13.0364 15.0017 13.048 15.3437 13.0641 15.7391Z" fill="#666666"/>
<path id="Vector_29" d="M13.065 15.7654C13.0806 16.1483 13.0994 16.4828 13.1236 16.7747H17.1264C17.1465 16.4828 17.1599 16.1488 17.168 15.7654V15.7392H13.0641L13.065 15.7654Z" fill="#4B4949"/>
<path id="Vector_30" d="M13.2707 17.8098H16.9836C17.0503 17.5442 17.0959 17.2057 17.1259 16.7744H13.1231C13.1584 17.2057 13.205 17.5442 13.2703 17.8098H13.2707Z" fill="#666666"/>
<path id="Vector_31" d="M15.1165 18.7797C16.212 18.7797 16.7399 18.7797 16.9837 17.8095H13.2708C13.5101 18.7792 14.0017 18.7797 15.1165 18.7797Z" fill="#4B4949"/>
<path id="Vector_32" d="M23.2879 17.6339C25.3917 17.6339 25.9044 17.6339 25.9871 14.9536C26.0699 12.2746 25.9871 12.2733 23.2879 12.2733C20.5887 12.2733 20.433 12.4163 20.5887 14.9536C20.7528 17.6339 21.1474 17.6339 23.2879 17.6339ZM25.1784 13.3447C25.3434 13.3447 25.4772 13.4775 25.4772 13.6414C25.4772 13.8054 25.3434 13.9382 25.1784 13.9382C25.0133 13.9382 24.8795 13.8054 24.8795 13.6414C24.8795 13.4775 25.0133 13.3447 25.1784 13.3447ZM25.1784 14.5712C25.3434 14.5712 25.4772 14.704 25.4772 14.8679C25.4772 15.0318 25.3434 15.1646 25.1784 15.1646C25.0133 15.1646 24.8795 15.0318 24.8795 14.8679C24.8795 14.704 25.0133 14.5712 25.1784 14.5712ZM25.1784 15.798C25.3434 15.798 25.4772 15.9308 25.4772 16.0948C25.4772 16.2587 25.3434 16.3915 25.1784 16.3915C25.0133 16.3915 24.8795 16.2587 24.8795 16.0948C24.8795 15.9308 25.0133 15.798 25.1784 15.798ZM22.8714 12.9356C24.4872 12.9356 24.5369 12.9365 24.4872 14.9532C24.4376 16.9707 24.1307 16.9707 22.8714 16.9707C21.6122 16.9707 21.3536 16.9707 21.2552 14.9532C21.1622 13.0431 21.253 12.9356 22.8714 12.9356Z" fill="#C5BEC0"/>
<path id="Vector_33" d="M24.7745 18.9648C24.7745 18.6174 24.4909 18.3358 24.1411 18.3358H22.1392C21.7894 18.3358 21.5058 18.6174 21.5058 18.9648V20.1872H24.774V18.9648H24.7745Z" fill="#666666"/>
<path id="Vector_34" d="M25.1783 13.9384C25.3434 13.9384 25.4772 13.8055 25.4772 13.6416C25.4772 13.4777 25.3434 13.3449 25.1783 13.3449C25.0133 13.3449 24.8795 13.4777 24.8795 13.6416C24.8795 13.8055 25.0133 13.9384 25.1783 13.9384Z" fill="black"/>
<path id="Vector_35" d="M25.1783 15.1654C25.3434 15.1654 25.4772 15.0326 25.4772 14.8687C25.4772 14.7047 25.3434 14.5719 25.1783 14.5719C25.0133 14.5719 24.8795 14.7047 24.8795 14.8687C24.8795 15.0326 25.0133 15.1654 25.1783 15.1654Z" fill="black"/>
<path id="Vector_36" d="M25.1783 16.3915C25.3434 16.3915 25.4772 16.2587 25.4772 16.0948C25.4772 15.9308 25.3434 15.798 25.1783 15.798C25.0133 15.798 24.8795 15.9308 24.8795 16.0948C24.8795 16.2587 25.0133 16.3915 25.1783 16.3915Z" fill="black"/>
<path id="Vector_37" d="M10.767 10.4714L10.7678 10.4652C11.0121 10.4336 11.3185 9.56388 11.4648 8.4667C11.6111 7.36953 11.5431 6.45049 11.3154 6.35676L11.3163 6.35054L11.2349 6.33988L9.67232 6.13422C9.92059 6.16664 9.99887 7.1159 9.84723 8.25349C9.69558 9.39153 9.37126 10.2875 9.12299 10.2546L10.6032 10.4492L10.7674 10.4709L10.767 10.4714Z" fill="#4B4949"/>
<path id="Vector_38" d="M9.84676 8.25388C9.99841 7.11585 9.92013 6.16704 9.67185 6.13461C9.42358 6.10219 9.09926 6.99813 8.94761 8.13573C8.79597 9.27376 8.87425 10.2226 9.12252 10.255C9.3708 10.2874 9.69512 9.39148 9.84676 8.25388Z" fill="#C5BEC0"/>
<path id="Vector_39" d="M26.4963 6.35052L26.4972 6.35674C26.2695 6.45047 26.2015 7.36952 26.3478 8.46669C26.4941 9.56386 26.8005 10.4336 27.0447 10.4651L27.0456 10.4714L27.2098 10.4496L28.69 10.255C28.4418 10.2875 28.1175 9.39151 27.9658 8.25392C27.8142 7.11588 27.8924 6.16707 28.1407 6.13464L26.5782 6.33986L26.4968 6.35052H26.4963Z" fill="#4B4949"/>
<path id="Vector_40" d="M27.9658 8.25391C28.1175 9.39195 28.4418 10.2879 28.69 10.255C28.9383 10.2226 29.0166 9.27334 28.865 8.13575C28.7133 6.99771 28.389 6.10176 28.1407 6.13463C27.8924 6.16706 27.8142 7.11631 27.9658 8.25391Z" fill="#C5BEC0"/>
<path id="Vector_41" d="M15.9002 8.07078C16.2947 8.07078 16.6146 7.75318 16.6146 7.36139C16.6146 6.96961 16.2947 6.65201 15.9002 6.65201C15.5056 6.65201 15.1858 6.96961 15.1858 7.36139C15.1858 7.75318 15.5056 8.07078 15.9002 8.07078ZM16.3771 7.35295C16.4227 7.41114 16.4218 7.48755 16.3753 7.52353C16.3287 7.55951 16.254 7.54129 16.2084 7.4831C16.1628 7.42491 16.1637 7.34851 16.2097 7.31253C16.2563 7.27655 16.331 7.29476 16.3766 7.35295H16.3771ZM15.8635 6.86922C15.9507 6.8017 16.0912 6.83591 16.1771 6.94518C16.263 7.0549 16.2616 7.19837 16.174 7.26589C16.0867 7.33341 15.9463 7.29921 15.8604 7.18949C15.7745 7.07977 15.7758 6.9363 15.8635 6.86922Z" fill="black"/>
<path id="Vector_42" d="M16.174 7.26593C16.2613 7.19842 16.2626 7.05494 16.1772 6.94522C16.0913 6.8355 15.9512 6.80175 15.8636 6.86926C15.7763 6.93678 15.775 7.08026 15.8604 7.18953C15.9463 7.29925 16.0863 7.33301 16.174 7.26593Z" fill="white"/>
<path id="Vector_43" d="M16.2089 7.4832C16.2545 7.54139 16.3292 7.55961 16.3758 7.52363C16.4223 7.48765 16.4232 7.41124 16.3775 7.35305C16.3319 7.29486 16.2572 7.27665 16.2107 7.31263C16.1642 7.34861 16.1633 7.42501 16.2094 7.4832H16.2089Z" fill="white"/>
<path id="Vector_44" d="M21.9125 8.07078C22.307 8.07078 22.6269 7.75318 22.6269 7.36139C22.6269 6.96961 22.307 6.65201 21.9125 6.65201C21.5179 6.65201 21.1981 6.96961 21.1981 7.36139C21.1981 7.75318 21.5179 8.07078 21.9125 8.07078ZM22.3898 7.35295C22.4354 7.41114 22.4345 7.48755 22.388 7.52353C22.3415 7.55951 22.2667 7.54129 22.2211 7.4831C22.1755 7.42491 22.1764 7.34851 22.2229 7.31253C22.2694 7.27655 22.3441 7.29476 22.3898 7.35295ZM21.8758 6.86922C21.963 6.8017 22.1035 6.83591 22.1894 6.94518C22.2752 7.0549 22.2739 7.19837 22.1862 7.26589C22.099 7.33341 21.9585 7.29921 21.8726 7.18949C21.7868 7.07977 21.7881 6.9363 21.8758 6.86922Z" fill="black"/>
<path id="Vector_45" d="M22.1862 7.26593C22.2734 7.19842 22.2747 7.05494 22.1893 6.94522C22.1034 6.8355 21.9634 6.80175 21.8757 6.86926C21.7885 6.93678 21.7871 7.08026 21.8726 7.18953C21.9585 7.29925 22.0985 7.33301 22.1862 7.26593Z" fill="white"/>
<path id="Vector_46" d="M22.2211 7.4832C22.2667 7.54139 22.3414 7.55961 22.388 7.52363C22.4345 7.48765 22.4354 7.41124 22.3898 7.35305C22.3441 7.29486 22.2694 7.27665 22.2229 7.31263C22.1764 7.34861 22.1755 7.42501 22.2211 7.4832Z" fill="white"/>
<path id="Vector_47" d="M21.9903 24.4873C22.082 24.4545 22.1581 24.4198 22.222 24.3732C22.2538 24.3496 22.2838 24.3225 22.3084 24.2861C22.333 24.2501 22.3518 24.2017 22.3513 24.1497C22.3513 24.0978 22.3325 24.0494 22.3084 24.0134C22.261 23.9459 22.2006 23.9072 22.1308 23.8708C22.0082 23.809 21.8449 23.7606 21.6396 23.7158C21.0254 23.5834 20.0332 23.4999 18.9064 23.4999C17.9911 23.4999 17.1631 23.5554 16.5565 23.6469C16.2528 23.6927 16.0054 23.7469 15.8224 23.8117C15.7307 23.8446 15.6547 23.8792 15.5907 23.9259C15.559 23.9494 15.529 23.9765 15.5044 24.0129C15.4798 24.0489 15.461 24.0973 15.4614 24.1493C15.4614 24.2013 15.4802 24.2497 15.5044 24.2857C15.5518 24.3532 15.6122 24.3914 15.682 24.4283C15.8045 24.49 15.9678 24.5384 16.1731 24.5833C16.7873 24.7156 17.7795 24.7992 18.9064 24.7992C19.8216 24.7992 20.6497 24.7436 21.2562 24.6521C21.56 24.6059 21.8074 24.5522 21.9903 24.4873ZM16.6035 24.3479C16.3118 24.3043 16.0774 24.2515 15.9276 24.1977C15.8806 24.1813 15.843 24.1644 15.8153 24.1493C15.8229 24.1453 15.83 24.1413 15.839 24.1373C15.9253 24.096 16.0747 24.0507 16.2666 24.0107C16.8455 23.889 17.8144 23.8073 18.9068 23.8077C19.8087 23.8077 20.6259 23.8632 21.2102 23.9512C21.5018 23.9952 21.7362 24.0476 21.8861 24.1013C21.9331 24.1178 21.9706 24.1346 21.9984 24.1497C21.9908 24.1537 21.9836 24.1577 21.9747 24.1617C21.8883 24.203 21.7389 24.2484 21.547 24.2883C20.9682 24.41 19.9992 24.4918 18.9068 24.4913C18.005 24.4913 17.1877 24.4358 16.6035 24.3479Z" fill="#F9B233"/>
<path id="Vector_48" d="M20.9559 26.3727C21.0203 26.3372 21.0767 26.2981 21.1223 26.2466C21.1675 26.1959 21.2046 26.1258 21.2046 26.0449C21.2046 25.9645 21.1679 25.8939 21.1223 25.8432C21.0821 25.7979 21.0342 25.7624 20.9796 25.7304C20.8843 25.6745 20.7667 25.6291 20.628 25.5887C20.2124 25.4683 19.5978 25.3955 18.9062 25.3951C18.3041 25.3951 17.7597 25.451 17.3553 25.5443C17.1526 25.5914 16.9853 25.6469 16.8565 25.7171C16.7921 25.7526 16.7357 25.7917 16.6901 25.8432C16.6449 25.8939 16.6078 25.9641 16.6078 26.0449C16.6078 26.1253 16.6445 26.1959 16.6901 26.2466C16.7304 26.2919 16.7782 26.3274 16.8328 26.3594C16.9281 26.4154 17.0457 26.4607 17.1844 26.5011C17.6 26.6215 18.2146 26.6943 18.9062 26.6948C19.5083 26.6948 20.0527 26.6388 20.4571 26.5455C20.6598 26.4984 20.8271 26.4429 20.9559 26.3727ZM18.9062 26.3869C18.3242 26.3869 17.7973 26.3319 17.4255 26.2457C17.2403 26.203 17.0936 26.1515 17.0059 26.1031C16.9639 26.0804 16.9366 26.0587 16.9245 26.0454C16.9317 26.0374 16.9433 26.0258 16.9648 26.0116C17.0167 25.9761 17.1093 25.9339 17.2305 25.8965C17.4125 25.8397 17.659 25.7904 17.9453 25.7566C18.2321 25.7224 18.5591 25.7029 18.9062 25.7029C19.4882 25.7029 20.0152 25.758 20.3869 25.8441C20.5721 25.8868 20.7188 25.9383 20.8065 25.9867C20.8485 26.0094 20.8758 26.0311 20.8879 26.0445C20.8808 26.0525 20.8691 26.064 20.8477 26.0782C20.7958 26.1138 20.7032 26.156 20.5819 26.1933C20.3999 26.2501 20.1534 26.2994 19.8671 26.3332C19.5803 26.3674 19.2533 26.3869 18.9062 26.3869Z" fill="#F9B233"/>
</g>
</g>
</svg>
